<?xml version="1.0" encoding="utf-8"?>
<!-- Generator: Adobe Illustrator 20.0.0, SVG Export Plug-In . SVG Version: 6.00 Build 0)  -->
<svg version="1.1" xmlns="http://www.w3.org/2000/svg" xmlns:xlink="http://www.w3.org/1999/xlink" x="0px" y="0px"
	 viewBox="0 0 190 190" style="enable-background:new 0 0 190 190;" xml:space="preserve">
<style type="text/css">
	.st0{fill:#756055;stroke:#010202;stroke-width:0.2684;stroke-miterlimit:10;}
	.st1{fill:#756055;}
	.st2{fill-rule:evenodd;clip-rule:evenodd;fill:#756055;}
</style>
<g id="iconos">
	<ellipse transform="matrix(0.3629 -0.9318 0.9318 0.3629 -1.3309 207.9081)" class="st1" cx="151.4" cy="104.9" rx="0" ry="0"/>
	<ellipse transform="matrix(0.3596 -0.9331 0.9331 0.3596 -15.7438 206.4545)" class="st1" cx="142.5" cy="114.7" rx="0" ry="0"/>
	<ellipse transform="matrix(0.3162 -0.9487 0.9487 0.3162 -10.8392 198.2403)" class="st1" cx="132.1" cy="106.6" rx="0" ry="0"/>
	<path class="st1" d="M121.2,134L121.2,134L121.2,134C121.2,133.9,121.2,134,121.2,134C121.2,134,121.2,134,121.2,134z"/>
	<path class="st1" d="M61.7,116.3L61.7,116.3L61.7,116.3C61.7,116.3,61.7,116.3,61.7,116.3C61.7,116.3,61.7,116.3,61.7,116.3z"/>
	<path class="st1" d="M92.8,125.1L92.8,125.1L92.8,125.1C92.8,125.1,92.8,125.1,92.8,125.1C92.8,125.1,92.8,125.1,92.8,125.1z"/>
	<path class="st1" d="M77.5,120.5L77.5,120.5L77.5,120.5C77.5,120.5,77.5,120.5,77.5,120.5C77.5,120.5,77.5,120.5,77.5,120.5z"/>
	<path class="st1" d="M106.3,129.8L106.3,129.8L106.3,129.8C106.3,129.8,106.3,129.8,106.3,129.8
		C106.3,129.8,106.3,129.8,106.3,129.8z"/>
	<polygon class="st1" points="97.3,91.8 97.3,91.8 97.3,91.8 97.3,91.8 	"/>
	<polygon class="st1" points="85.9,88.6 85.9,88.6 85.9,88.6 85.9,88.6 	"/>
	<ellipse transform="matrix(0.3663 -0.9305 0.9305 0.3663 -35.3574 111.0429)" class="st1" cx="63.8" cy="81.5" rx="0" ry="0"/>
	<polygon class="st1" points="51.8,78.3 51.8,78.3 51.7,78.3 51.7,78.3 	"/>
	<polygon class="st1" points="75.6,85 75.6,85 75.6,85 75.6,85 	"/>
	<path class="st1" d="M117.1,99.5c-5.4,1.6-10.5,3.4-15.3,5.5c11.1,3.4,20.9,8,28.7,13.3c6.1,4.2,11.1,8.8,14.4,13.7
		c9.4-9.9,15.6-23,16.6-37.5c-2.8-0.3-5.8-0.4-8.9-0.4C141.8,94.1,129.6,95.8,117.1,99.5z M131,109.1c-0.6-0.4-2.2-2.1-2.8-2.9
		c0.2,0.9,1.6,2.5,2.4,3.1c-2.9,0.2-3.5-3.1-2.9-4.3c0.6,0.5,1.2,0.9,1.8,1.2C130.8,106.8,131.5,108.2,131,109.1z M131.4,114v-7.3
		h0.7c0-1-0.4-2.5,1.1-5.7c-1.4,1.3-1.9,4.2-1.8,5.7c-2.8-2.3,0.3-6.7,2.8-7.3c-0.2,1.1-0.1,2.2,0.1,3.1c0.4,2-0.6,4-2.1,4.2v7.3
		H131.4z M135.6,108.3c-1.3,0.7-2.8,0.5-3.2-0.5c0.7-0.2,3-0.5,4-0.5c-0.9-0.4-3-0.2-3.9,0c1.6-2.5,4.6-0.9,5.2,0.3
		C136.9,107.7,136.2,108,135.6,108.3z M141.4,117.2c-0.6-0.4-2.2-2.1-2.8-2.9c0.2,0.9,1.6,2.5,2.4,3.1c-2.9,0.2-3.5-3.1-2.9-4.3
		c0.6,0.5,1.2,0.9,1.8,1.2C141.2,114.9,141.9,116.2,141.4,117.2z M141.8,122v-7.3h0.7c0-1-0.4-2.5,1.1-5.7c-1.4,1.3-1.9,4.2-1.8,5.7
		c-2.8-2.3,0.3-6.7,2.8-7.3c-0.2,1.1-0.1,2.2,0.1,3.1c0.4,2-0.6,4-2.1,4.2v7.3H141.8z M146.1,116.4c-1.3,0.7-2.8,0.5-3.2-0.5
		c0.7-0.2,3-0.5,4-0.5c-0.9-0.4-3-0.2-3.9,0c1.6-2.5,4.6-0.9,5.2,0.3C147.3,115.8,146.6,116.1,146.1,116.4z M150.2,107.4
		c-0.6-0.4-2.2-2.1-2.8-2.9c0.2,0.9,1.6,2.5,2.4,3.1c-2.9,0.2-3.5-3.1-2.9-4.3c0.6,0.5,1.2,0.9,1.8,1.2
		C150,105.1,150.8,106.4,150.2,107.4z M156.9,105.9c-0.8,0.1-1.4,0.4-2,0.7c-1.3,0.7-2.8,0.5-3.2-0.5c0.7-0.2,3-0.5,4-0.5
		c-0.9-0.4-3-0.2-3.9,0C153.3,103.2,156.3,104.7,156.9,105.9z M153.5,100.7c0.4,2-0.6,4-2.1,4.2v7.3h-0.7v-7.3h0.7
		c0-1-0.4-2.5,1.1-5.7c-1.4,1.3-1.9,4.2-1.8,5.7c-2.8-2.3,0.3-6.7,2.8-7.3C153.2,98.7,153.3,99.8,153.5,100.7z"/>
	<path class="st1" d="M128.4,121.3c-11.2-7.6-27.1-13.9-45.2-16.9c-7.8-1.3-15.5-2-22.7-2c-6.5,0-12.7,0.5-18.3,1.5
		c6.2,26.8,30.2,46.8,58.9,46.8c15.8,0,30.3-6.1,41-16.1C139.2,130,134.5,125.5,128.4,121.3z M60.2,119.3c-0.8-0.5-2.8-2.6-3.5-3.6
		c0.3,1.1,2.1,3.2,3,3.9c-3.7,0.2-4.4-3.8-3.7-5.4c0.7,0.7,1.5,1.1,2.2,1.5C60,116.5,60.9,118.2,60.2,119.3z M60.7,125.5v-9.2h0.9
		c-0.1-1.3-0.4-3.1,1.3-7.1c-1.8,1.7-2.4,5.3-2.3,7.1c-3.6-2.9,0.4-8.4,3.5-9.2c-0.2,1.4-0.1,2.7,0.1,3.9c0.5,2.6-0.7,5.1-2.7,5.3
		v9.2H60.7z M66.1,118.4c-1.6,0.8-3.5,0.6-4.1-0.7c0.9-0.3,3.8-0.6,5-0.6c-1.1-0.5-3.8-0.3-4.9,0.1c2-3.1,5.7-1.2,6.5,0.3
		C67.6,117.6,66.8,118,66.1,118.4z M76.1,123.5c-0.8-0.5-2.8-2.6-3.5-3.6c0.3,1.1,2.1,3.2,3,3.9c-3.7,0.2-4.4-3.8-3.7-5.4
		c0.7,0.7,1.5,1.1,2.2,1.5C75.8,120.7,76.7,122.4,76.1,123.5z M76.6,129.6v-9.2h0.9c-0.1-1.3-0.4-3.1,1.3-7.1
		c-1.8,1.7-2.4,5.3-2.3,7.1c-3.6-2.9,0.4-8.4,3.5-9.2c-0.2,1.4-0.1,2.7,0.1,3.9c0.5,2.6-0.7,5.1-2.7,5.3v9.2H76.6z M81.9,122.6
		c-1.6,0.8-3.5,0.6-4.1-0.7c0.9-0.3,3.8-0.6,5-0.6c-1.1-0.5-3.8-0.3-4.9,0.1c2-3.1,5.7-1.2,6.5,0.3
		C83.4,121.8,82.6,122.2,81.9,122.6z M91.4,128.2c-0.8-0.5-2.8-2.6-3.5-3.6c0.3,1.1,2.1,3.2,3,3.9c-3.7,0.2-4.4-3.8-3.7-5.4
		c0.7,0.7,1.5,1.1,2.2,1.5C91.2,125.3,92.1,127,91.4,128.2z M91.9,134.3v-9.2h0.9c-0.1-1.3-0.4-3.1,1.3-7.1
		c-1.8,1.7-2.4,5.3-2.3,7.1c-3.6-2.9,0.4-8.4,3.5-9.2c-0.2,1.4-0.1,2.7,0.1,3.9c0.5,2.6-0.7,5.1-2.7,5.3v9.2H91.9z M97.2,127.2
		c-1.6,0.8-3.5,0.6-4.1-0.7c0.9-0.3,3.8-0.6,5-0.6c-1.1-0.5-3.8-0.3-4.9,0.1c2-3.1,5.7-1.2,6.5,0.3C98.8,126.5,98,126.8,97.2,127.2z
		 M104.9,132.8c-0.8-0.5-2.8-2.6-3.5-3.6c0.3,1.1,2.1,3.2,3,3.9c-3.7,0.2-4.4-3.8-3.7-5.4c0.7,0.7,1.5,1.1,2.2,1.5
		C104.6,130,105.6,131.7,104.9,132.8z M105.4,138.9v-9.2h0.9c-0.1-1.3-0.4-3.1,1.3-7.1c-1.8,1.7-2.4,5.3-2.3,7.1
		c-3.6-2.9,0.4-8.4,3.5-9.2c-0.2,1.4-0.1,2.7,0.1,3.9c0.5,2.6-0.7,5.1-2.7,5.3v9.2H105.4z M110.7,131.9c-1.6,0.8-3.5,0.6-4.1-0.7
		c0.9-0.3,3.8-0.6,5-0.6c-1.1-0.5-3.8-0.3-4.9,0.1c2-3.1,5.7-1.2,6.5,0.3C112.3,131.1,111.5,131.5,110.7,131.9z M119.8,137
		c-0.8-0.5-2.8-2.6-3.5-3.6c0.3,1.1,2.1,3.2,3,3.9c-3.7,0.2-4.4-3.8-3.7-5.4c0.7,0.7,1.5,1.1,2.2,1.5
		C119.5,134.2,120.5,135.8,119.8,137z M120.3,143.1v-9.2h0.9c-0.1-1.3-0.4-3.1,1.3-7.1c-1.8,1.7-2.4,5.3-2.3,7.1
		c-3.6-2.9,0.4-8.4,3.5-9.2c-0.2,1.4-0.1,2.7,0.1,3.9c0.5,2.6-0.7,5.1-2.7,5.3v9.2H120.3z M125.6,136.1c-1.6,0.8-3.5,0.6-4.1-0.7
		c0.9-0.3,3.8-0.6,5-0.6c-1.1-0.5-3.8-0.3-4.9,0.1c2-3.1,5.7-1.2,6.5,0.3C127.2,135.3,126.3,135.7,125.6,136.1z"/>
	<path class="st1" d="M83.9,100.7c4.5,0.8,8.7,1.5,12.9,2.6c6-2.8,12.5-5.4,19.3-7.4c1.8-0.5,3.5-1,5.3-1.4
		C111,84.4,94,75.1,73.7,69.8c-9.6-2.5-19-4-27.8-4.4c-3.4,7.6-5.3,15.9-5.3,24.8c0,3.4,0.3,6.8,0.9,10.1c5.9-1,12.3-1.6,19.1-1.6
		C68,98.7,75.8,99.4,83.9,100.7z M102.6,92.7c-0.7,0.1-1.4,0.4-1.9,0.7c-1.2,0.6-2.7,0.4-3.1-0.5c0.7-0.2,2.9-0.5,3.8-0.5
		c-0.8-0.4-2.9-0.2-3.8,0C99.1,90.1,102,91.6,102.6,92.7z M99.2,84.8c-0.2,1.1-0.1,2.1,0.1,3c0.4,2-0.6,3.9-2,4v7h-0.7v-7h0.7
		c0-1-0.3-2.4,1-5.4c-1.4,1.3-1.8,4-1.7,5.4C93.8,89.6,96.8,85.3,99.2,84.8z M93,90.2c0.5,0.5,1.2,0.9,1.7,1.1
		c1.3,0.6,2,1.9,1.5,2.8c-0.6-0.4-2.1-2-2.7-2.8c0.2,0.9,1.6,2.4,2.3,3C93,94.5,92.5,91.4,93,90.2z M91.2,89.5
		c-0.7,0.1-1.4,0.4-1.9,0.7c-1.2,0.6-2.7,0.4-3.1-0.5c0.7-0.2,2.9-0.5,3.8-0.5c-0.8-0.4-2.9-0.2-3.8,0
		C87.8,86.9,90.6,88.4,91.2,89.5z M87.8,81.6c-0.2,1.1-0.1,2.1,0.1,3c0.4,2-0.6,3.9-2,4v7h-0.7v-7h0.7c0-1-0.3-2.4,1-5.4
		c-1.4,1.3-1.8,4-1.7,5.4C82.5,86.4,85.5,82.1,87.8,81.6z M81.6,87c0.5,0.5,1.2,0.9,1.7,1.1c1.3,0.6,2,1.9,1.5,2.8
		c-0.6-0.4-2.1-2-2.7-2.8c0.2,0.9,1.6,2.4,2.3,3C81.6,91.3,81.1,88.2,81.6,87z M80.9,86c-0.7,0.1-1.4,0.4-1.9,0.7
		c-1.2,0.6-2.7,0.4-3.1-0.5c0.7-0.2,2.9-0.5,3.8-0.5c-0.8-0.4-2.9-0.2-3.8,0C77.4,83.4,80.3,84.8,80.9,86z M77.5,78
		c-0.2,1.1-0.1,2.1,0.1,3c0.4,2-0.6,3.9-2,4v7h-0.7v-7h0.7c0-1-0.3-2.4,1-5.4c-1.4,1.3-1.8,4-1.7,5.4C72.1,82.8,75.1,78.6,77.5,78z
		 M71.3,83.5c0.5,0.5,1.2,0.9,1.7,1.1c1.3,0.6,2,1.9,1.5,2.8c-0.6-0.4-2.1-2-2.7-2.8c0.2,0.9,1.6,2.4,2.3,3
		C71.3,87.8,70.8,84.7,71.3,83.5z M69.1,82.4c-0.7,0.1-1.4,0.4-1.9,0.7c-1.2,0.6-2.7,0.4-3.1-0.5c0.7-0.2,2.9-0.5,3.8-0.5
		c-0.8-0.4-2.9-0.2-3.8,0C65.7,79.8,68.5,81.3,69.1,82.4z M65.8,74.5c-0.2,1.1-0.1,2.1,0.1,3c0.4,2-0.6,3.9-2,4v7h-0.7v-7h0.7
		c0-1-0.3-2.4,1-5.4c-1.4,1.3-1.8,4-1.7,5.4C60.4,79.3,63.4,75,65.8,74.5z M50.7,80.6c-0.6-0.4-2.1-2-2.7-2.8c0.2,0.9,1.6,2.4,2.3,3
		c-2.8,0.2-3.3-2.9-2.8-4.1c0.5,0.5,1.2,0.9,1.7,1.1C50.5,78.4,51.2,79.7,50.7,80.6z M51,85.3v-7h0.7c0-1-0.3-2.4,1-5.4
		c-1.4,1.3-1.8,4-1.7,5.4c-2.7-2.2,0.3-6.5,2.7-7c-0.2,1.1-0.1,2.1,0.1,3c0.4,2-0.6,3.9-2,4v7H51z M55.1,79.9
		c-1.2,0.6-2.7,0.4-3.1-0.5c0.7-0.2,2.9-0.5,3.8-0.5c-0.8-0.4-2.9-0.2-3.8,0c1.6-2.4,4.4-0.9,5,0.2C56.3,79.3,55.7,79.6,55.1,79.9z
		 M59.6,79.9c0.5,0.5,1.2,0.9,1.7,1.1c1.3,0.6,2,1.9,1.5,2.8c-0.6-0.4-2.1-2-2.7-2.8c0.2,0.9,1.6,2.4,2.3,3
		C59.6,84.2,59,81.1,59.6,79.9z"/>
	<g>
		<path class="st1" d="M145.8,56.4c1.7,1,2.9,2.8,5.5,2c0.4-0.1,0.7-0.3,1.1-0.4c-0.8-1.3-1.7-2.6-2.6-3.8c-0.2-0.5-2.9-3.6-2.9-3.6
			c-0.3-0.3-0.5-0.6-0.8-0.9c-0.8,2-0.4,4-0.6,6C145.5,56,145.6,56.3,145.8,56.4z"/>
		<path class="st1" d="M91.4,31.9c-0.3,0.1-0.7,0.4-0.5,1c0.1,0.3,0.6,0.3,0.8,0.4c1.2,0.1,2.6,0.2,3.8,0.3c0.7,0.1,1.4,0.2,1.9,1.1
			c-0.9-0.2-1.8-0.3-2.5-0.4c-1.6-0.2-3.4-0.1-4.7-0.7C89,33,88.3,33.4,87.3,34c-2.5,1.6-4.8,3-7.5,4c-1.8,0.7-3.6,1.3-5.5,2.2
			c-1.6,0.8-1.8,1.2-1.2,2.7c0.8,2.1,0.9,4.4,0.9,6.6c0.1,2,0.7,3.8,2.3,5.3c1.9,1.9,2.1,1.9,3.9,0.1c0.4-0.3,0.9-0.8,1.1-1.2
			c0.8-1.1,1.4-2.1,2.1-3c0.3-0.6,0.9-1.3,1.7-1c2.2,1.2,4.4,0.6,6.4,1.2c2,0.4,3.5-0.1,5.3-1.3c0.8-0.5,1.5-1,2.2-1.5
			c-1.9,1.4-3.7,2.7-5.7,4.1c-0.5,0.5-0.8,1.1-0.5,1.7c0.5,3.2,1.6,6.2,2.7,9.2c0.3,0.4,0.6,0.8,1.2,0.6c2.7-1,5.6-2.4,8.2-3.9
			c-0.9-1.2-2.2-1.2-3.3-1.5c-2-0.4-2.4-1.3-0.9-2.9c1.4-1.4,2.7-2.7,3.9-4.2c1.3-1.9,1.4-3.1-0.3-4.8c-0.6-0.7-1.1-1-1.8-0.8
			c1.8-1.1,3.6-2.2,5.7-2.9c2.6-0.8,2.4-0.9,2.2-3.7c-0.1-1.3-0.8-2.6-0.1-4c0.8,0.9,0.8,1.6,0.9,2.4c0.1,0.8,0.5,1.7,0.6,2.5
			c0.2,0.6,0.5,1,1.1,0.8c1.6-0.8,3.5-1.1,4.3-3c0.7-1.4,1.7-2.7,2.8-3.9c0.3-0.2,0.5-0.8,0.9-0.7c-4.3-1.5-8.9-2.5-13.6-3
			c0,0.8,0,1.6,0.1,2.6c0,1-0.3,1.8-1.3,2.4c-1.9,0.9-3.3,2.4-5.1,3.6c-1.4,0.9-2.2,2.7-4.3,1.8c-0.4-0.2-0.9,0.3-1.4,0.3
			c-1.9,0.4-3.9,0.9-5.9,1c-1,0-1.8,0.7-2.5,1.6c-0.7,0.9-1,2.2-2.1,3c-0.7-0.6-0.3-0.9-0.1-1.3c0.5-0.5,1.1-1.2,1.4-2.1
			c0.5-1,0.2-1.6-0.9-1.9c-1.1-0.3-2.3-0.3-3.7-1.2c1.1-0.7,1.8-0.2,2.5-0.1c1.8,0.3,3.7,1.2,5.6,0.8c4.8-0.8,9.5-1.3,13.3-4.8
			c0.5-0.5,0.9-0.8,1.5-1.1c1.6-0.8,1.9-2.1,1.9-3.6c-0.1-0.4-0.1-0.8-0.2-1.2c-1.7-0.1-3.4-0.2-5.1-0.2c-2.1,0-4.1,0.1-6.1,0.3
			c-0.2,0.1-0.4,0.2-0.6,0.3C93.4,30.8,92.4,31.4,91.4,31.9z"/>
		<path class="st1" d="M134,41.6c-2.6,0.3-5.2,0.6-7.8,1.4c-0.5,0-1.1,0.2-1.3,0.6c-0.5,1.7-0.9,3.6-0.1,5.1
			c1.3,2.6,4.7,3.9,7.5,3.2c3.4-0.9,6.9-2,10.4-2.7c1-0.2,1.6-0.6,2-1.1c-2.6-2.7-5.5-5.2-8.6-7.4c0.5,1.2,1,2.4,1.3,3.8
			c-0.9-0.7-1.1-1.3-1.4-1.9C135.8,41.6,135,41.6,134,41.6z"/>
		<path class="st1" d="M96.1,72.9c-0.6,0-1.3,0-2,0l3.4,1.6C97.9,73.3,97.6,72.9,96.1,72.9z"/>
		<path class="st1" d="M121.5,33.3c-0.2,0.4-0.3,0.6-0.7,0.9c-1.3,1.1-2.2,2.7-2.9,4.1c-0.6,1.2-0.3,1.8,1.2,2.3
			c0.6,0.3,1.4,0.2,2,0.9c-1.6,0.3-3.1-0.2-4.4-0.6c-1-0.5-1.8-0.3-2.7,0c-2.5,0.6-4.5,2.2-6.8,3c-1.9,0.9-1.7,1-1,2.8
			c0.8,1.6,1.8,3.1,2.5,4.9c0.5,1.5,0.8,2.3,1.3,2.4c-2.1,0.9-2.2,0.7-2.8-1.9c-0.1-0.3-0.1-0.8-0.9-1.4c-1.6,1.8-3,3.3-4.6,5.1
			c-0.9,0.8-0.7,1.4,0.5,1.7c1.3,0.4,2.6,0.7,4.1,0.9c1,0,1.3,0.4,1.4,1.2c0.2,1.1,0.7,2.3,1.3,3.1c0.5,0.5,0.8,0.9,1.4,0.7
			c4-1.1,4.9-2.7,4.2-7c0.1-0.2-0.1-0.3,0-0.5c-0.5-2.4-0.7-3-2-2.8c0.2-0.1,0.5-0.2,0.7-0.3c1-0.5,1.6-1.3,1.4-2.6
			c-0.3-1.6,0-3.2-0.6-4.7c-0.2-0.6-0.4-1.2,0.5-1.5c1.3,2.1,0.3,4.8,1.4,7.1c2.2-1,4.4-2,6.3-3c1.1-0.7,2-1.6,1.8-2.9
			c0-2.4,0.7-4.6,1.3-6.7c-0.2,0.8-0.4,1.6-0.5,2.4c-0.3,1.1,0,1.5,1.1,1.3c2-0.6,3.9-0.9,5.8-1.3c0.8-0.1,1.3-0.1,2.1-0.3
			c0.6-0.1,0.5-0.5,0.4-0.9c-4.2-2.7-8.7-5-13.4-6.7C121.1,33,121.3,33.1,121.5,33.3z"/>
		<path class="st1" d="M60,48.1c4.2,0.5,8.2,1.5,12.3,2.4c1.1-4.4-0.2-8.6-2.7-12c-3.8,2.4-7.4,5.1-10.6,8.2c0,0.1,0,0.2,0,0.4
			C58.9,47.9,59.5,48.2,60,48.1z"/>
		<path class="st1" d="M96.5,68.4c0.6-2.9,0.2-3.1-2.6-2.9c-0.5,0-0.8,0.1-1.3,0.1c-1.7,0-2.8,0.7-3.1,2.5c-0.1,0.7-0.3,1.5-1,2.3
			l4.1,1.8l0.8,0.4C95.6,71.9,95.8,71.7,96.5,68.4z"/>
		<path class="st1" d="M128.2,91.9c-0.2-0.6-0.8-0.4-1.1-0.3c-0.9,0.2-1.9,0.4-2.8,0.6c0.4,0.4,0.8,0.8,1.2,1.2
			c0.9-0.2,1.9-0.4,2.8-0.6C128.5,92.6,128.5,92.2,128.2,91.9z"/>
		<path class="st1" d="M67.6,63.3c-0.8-1.6-1.4-3.4-2.1-5.2c-0.3-0.9-0.9-1.2-1.8-0.8c-2.8,0.7-5.4,1-8,1.3
			c-2.1,0.3-2.9,1.9-3.8,3.4c0,0,0,0.1,0,0.1c5.1,0.5,10.4,1.3,15.7,2.4C67.8,64.2,67.8,63.8,67.6,63.3z"/>
		<path class="st1" d="M137.3,87.2c0.7-0.4,0.6-1.2,0.4-2c-1.3-5.3-3.3-10.7-6.6-15.2c-0.6-0.8-1-1-1.8-0.3c-1.6,1.3-3.8,2.2-3.1,5
			c0.1,0.3,0.1,0.8-0.6,0.7c0.2-0.9,0-1.7-0.1-2.5c0.2-0.4,0-1-0.5-1c-0.9-0.2-1.8-0.3-2.5,0.1c-0.9,0.3-0.3,1.1-0.3,1.8
			c0.1,0.2,0,0.3-0.1,0.5c-0.4-0.6-0.3-1.4-0.8-1.6c-1.7-1-1-2.7-1.1-4c1.9,2.9,2.4,2.8,6,2c1.4-0.3,2.6-1.3,3.5-2.3
			c0.2-0.4,0.6-0.7,1-1c3.4-1.9,6-4.9,9.1-7.4c0.4-0.3,0.8-0.6,0.7-1.4c-1.6,0.3-3.1,1.8-4.8,1.8c-0.1-0.8,0.4-0.8,0.7-0.9
			c1.8-0.7,3.2-1.5,4.9-2.5c3.3-1.7,3.5-2.1,3.4-5.3c-0.1-2-0.1-2-1.1-1.3c-3.9,0.9-7.9,2.1-11.6,3.1c-2.3,0.7-3.5,3.3-2.7,5.9
			c0.3,1.4,1,2.7,1.5,4.2c0.1,0.3,0.6,0.8-0.2,1.4c-0.7-1.1-1.1-2.5-1.5-3.7c-0.7-2.3-1.1-2.5-3.5-2.1c-1,0-2,0.6-2.9-0.1
			c0.2-0.9,0.8-0.6,1.3-0.6c2.9,0.1,3.7-0.5,4.7-3.3c0.3-1.1,0.2-2.1-0.7-2.8c-0.8-0.9-1.8-1.6-2.6-2.4c-0.7-1.1-1.7-1.1-2.7-0.5
			c-1.9,0.9-3.6,1.8-5.4,2.7c-1.1,0.2-1.3,1.1-1.2,2.2c0.2,1.8,0.6,3.5,0.8,5.3c0.2,1.8-0.5,2.7-2,3.3c-5.9,2-9.8,6.9-14.7,10.3
			c-0.3,0.1-0.3,0.6-0.4,0.8c-0.1,0.5-0.3,1-0.4,1.5l4.5,2.1c2.1,1.1,4.2,2.3,6.2,3.6c0.1-0.1,0.1-0.1,0.2-0.2
			c-2.5-2.6-5.3-5.2-7.3-8.3c1,0.5,1.9,1.3,2.5,2.1c1.6,2,3.1,3.9,5.2,5.4c0.5,0.5,1.1,1.3,2,0.9c0.9-0.3,0.4-1.3,0.4-2
			c0-1,0.1-1.9,0-2.7c-0.1-1.3-0.5-2.2-1.7-2.8c-0.9-0.2-1.7-0.5-2.1-1.4c0.4-0.3,0.5,0,0.7,0.1c1.7,1.1,1.7,1.1,2.3-0.7
			c0-0.5,0-1,1.1-1.7c-1.2,3.2,0.2,5.5,0.2,8.2c-0.2,1.4,0.3,1.6,1.7,1.3c1.6-0.3,3-0.6,4.3-1.2c0.9-0.5,2.1-0.9,2.7-1.8
			c0.9,2.6,2.7,4.3,5.2,5.7c0.6,0.3,0.9,0.7,1.3,0.9c2.1,1.4,4.1,2.9,6.2,4.3C135.4,87.5,136.4,87.7,137.3,87.2z"/>
		<path class="st1" d="M137.6,88.8c-1-0.5-2.2,0.5-3.3,0.7c-3.7,1-4.3,0.9-4.8,3.2c3.1-0.6,6.2-1.1,9.2-1.4
			C138.4,90.3,138.4,89.2,137.6,88.8z"/>
		<path class="st1" d="M141.2,62c2.4,2.8,4.7,5.4,7.2,8c0.8-1.6,1.8-1.7,3.1-1.3c0.7,0.1,1.2,0.1,1.9,0.1c0.7,0.1,1.1-0.2,1.3-1.1
			c0.1-1.2,0.5-2.2,1.4-2.9c-0.9-2-2-4-3.2-5.9c-1.1,0.3-2.1,0.5-3,1c-1.4,0.9-1.9,2.6-3.9,2.6c0-1.5,2-1.1,1.9-2.6
			c-0.7-0.6-1.3-0.9-2.1-1.4c-1.2-0.6-2.2-0.5-3.1,0.3c-3.3,2.9-6.9,5.8-10.2,8.7c-0.8,0.6-1.1,1.2-0.5,2.2c1.3,2.1,2.6,4.1,3.8,6.2
			c0.4,0.7,1.1,0.8,1.8,0.3c1.6-0.8,3.6-0.8,5.5-0.7c2.1,0.2,3.2-1,4.2-2.8c0.8-1.6-0.3-2.6-1-3.7c-0.5-1-1.5-1.7-2.1-2.4
			c-1.3-1.6-2.4-2.8-3.6-4.1C140.9,62.3,141.2,62.2,141.2,62z"/>
		<path class="st1" d="M134.7,88.2c-1.1-1.3-2.2-1.7-2.9-2.3c-2.5-1.6-5-3.1-7-5.2c-2.4-2.3-4.3-2.5-7.2-1.6
			c-2.1,0.8-2.5,1.6-1.7,3.7c0.3,1.1,0.7,2.1,1.1,3.2c2.4,1.8,4.6,3.6,6.5,5.5c0.7,0.1,1.5-0.1,2.1-0.3
			C128.6,90.1,131.5,89.2,134.7,88.2z"/>
		<path class="st1" d="M82.5,33c0.3,0.9,1,1,1.8,0.3c1.1-0.7,2.3-1.2,3.4-1.9c0.3-0.1,0.7-0.2,1-0.5c-2.1,0.4-4.2,1-6.3,1.7
			C82.4,32.8,82.5,32.9,82.5,33z"/>
		<path class="st1" d="M57.2,57.5c4.9,0,9.1-2,12.9-5c0.9-0.8,0.9-1.3-0.7-1.8c-2.8-0.8-5.9-1.2-8.9-1.6c-1.1-0.1-2.2-0.4-3.3-0.6
			c-1.9,2-3.7,4.2-5.3,6.5c0.9,0.6,1.9,1.2,2.8,1.8C55.4,57.5,56.1,57.5,57.2,57.5z"/>
		<path class="st1" d="M160.2,76.9c-0.2-0.9-0.4-1.7-0.6-2.5c-0.4,0.7-0.3,1.3,0.3,2.1C160,76.6,160.1,76.8,160.2,76.9z"/>
		<path class="st1" d="M114.7,82.5c-0.3-0.9-1-1-1.8-0.8c-0.5,0.1-1.1,0.2-1.6,0.3c1.5,1,3,2,4.4,3
			C115.3,84.1,115.1,83.3,114.7,82.5z"/>
		<path class="st1" d="M51,61.6c0.6-0.7,1.2-1.4,1.8-2.4c0.6-0.7,0.5-1.7-0.4-2.4c-0.4-0.3-0.8-0.6-1.2-0.9
			c-1.3,1.9-2.5,3.8-3.6,5.9c0.9,0.1,1.8,0.1,2.6,0.2C50.6,61.9,50.9,61.8,51,61.6z"/>
		<path class="st1" d="M161.7,90.8c0-0.2,0-0.4,0-0.6c0-2.3-0.1-4.5-0.4-6.7c-2,0.7-4,1.1-6.1,1c-2.2,0-3.1,0.8-3.8,2.4
			c-0.4,0.8-0.3,1.8-1.4,2.6c-0.1-1.3,0.4-2,0.8-2.8c1.1-1.7,1.1-1.7-1-2.7c-1-0.5-1.8-0.8-3-1.1c-0.5,0-1,0-1-1
			c2.9,0.6,5.6,1.8,8.5,1.9c2.4,0.1,4.7-0.4,7-1.2c-0.2-1.3-0.4-2.6-0.6-3.9c-1.6-1.9-3-3.7-3.6-6.3c-0.2-0.6-0.6-1.3-1-1.7
			c-1.3-1.6-3.2-1.2-4.8-1.5c-1.2-0.1-1.3,1.1-1.9,1.9c-0.5,1-1,1.7-1.7,2.7c-1,1.5-2.2,2.2-4.1,1.8c-1.6-0.2-3.3,0.2-5,0.7
			c-1.2,0.4-1.8,1.2-1.3,2.4c0.6,2.5,1.7,5,2.3,7.5c0.2,0.6,0.6,0.8,1.2,0.6c1.2-0.4,2.3-0.7,3.7-1c0.3-0.1,1-0.5,1.3,0.4
			c-1.7,0.5-3.4,0.9-5.1,1.4c-1.1,0.2-1.6,0.8-1.2,2.2c0.1,0.5,0.2,1,0.4,1.5c4.4-0.5,8.7-0.7,12.8-0.7
			C155.7,90.4,158.8,90.5,161.7,90.8z"/>
		<path class="st1" d="M158,72.9c0.4,0.8,0.9,0.8,1.3,0.5c-0.7-2.5-1.6-4.9-2.6-7.2c-0.9,1.3-0.9,2.8,0.2,4.8
			C157.4,71.6,157.6,72.2,158,72.9z"/>
		<path class="st1" d="M81.1,35.1c0.5-0.5,0.7-0.9,0.5-1.5c-0.1-0.2-0.1-0.4-0.2-0.6c-3,1-5.9,2.3-8.7,3.8c0,0.4,0,0.7-0.1,1.1
			C74.4,37.7,79.7,35.9,81.1,35.1z"/>
		<path class="st1" d="M71,38.6c0.1-0.3,0.2-0.7,0.2-1.1c-0.3,0.2-0.5,0.3-0.8,0.5C70.6,38.2,70.8,38.4,71,38.6z"/>
		<path class="st1" d="M107.4,65.5c0.9-0.8,1.3-1.7,0.4-2.5c-0.2-0.6-0.3-0.9-0.6-1.5c-0.2-1.1-0.9-1.4-1.8-0.8
			c-2.5,1.1-4.9,2-7,3.5c-0.6,0.2-1.1,0.7-1.4,1.4c-0.3,1.8-0.8,3.9-0.9,5.8c0,0.5,0.1,0.8,0.6,0.8c1.4,0.2,2.7,0.5,4-0.6
			C102.9,69.4,105.3,67.5,107.4,65.5z"/>
		<path class="st1" d="M84.6,50.1c-0.4-0.2-0.6,0.2-1,0.5c-1.8,1.7-2.7,4.2-4.7,6c-0.5,0.5,0,1.5,1,1.7c0.4,0.2,1,0,1.4-0.3
			c2.1-0.8,4.1-1.8,6.2-2.8c1.7-1,3.4-1.9,4.5-3.4c-0.1-0.3-0.3-0.4-0.3-0.4C89.4,50.3,86.9,50.9,84.6,50.1z"/>
		<path class="st1" d="M88.7,67c0.3-1.1-0.3-1.6-1.1-2c-1.1-0.8-2.5-0.4-3.7-1.2c-0.1-0.3,0-0.5,0.1-0.7c1.1,0.3,2.3,0.3,3.3,0.8
			c2.1,0.7,4.1,0.7,6.3,0.2c1.4-0.3,1.6-0.8,1.1-2c-0.9-2.4-2-4.9-2.6-7.4c-0.2-1.1-1.1-0.8-1.2-0.1c-3.9,1.9-7.8,4.1-12.2,5.5
			c-1.5,0.6-1.9,1.4-2,2.8c-0.1,1.2-0.1,2.4-0.2,3.6c3.8,1,7.5,2.1,11.1,3.4C88.1,68.9,88.3,67.8,88.7,67z"/>
		<path class="st1" d="M66.8,56c-0.3,0.6-0.8,1.1-0.5,1.7c0.6,2,0.9,3.9,2.2,5.5c0.2,0.1,0.3,0.4,0.5,0.5c0.8,0.4,1.1-0.2,1.7-0.5
			c2.3-1.2,3.9-3.1,6.5-3.9c0.9-0.3,0.9-0.8,0.5-1.7c-1.3-2.1-2.7-3.7-4.5-5.3c-0.5-0.5-1.1-0.8-1.6-0.2C69.9,53.5,68,54.3,66.8,56z
			"/>
		<path class="st1" d="M75.2,61.3c-1.8,1.2-3.1,1.8-4.2,2.8c-0.4,0.3-0.7,0.6-0.9,1c1.5,0.4,3,0.7,4.6,1.1c0.2,0,0.4,0.1,0.5,0.1
			C75.2,64.7,75.2,63.1,75.2,61.3z"/>
	</g>
</g>
<g id="Credits">
</g>
</svg>
