<?xml version="1.0" encoding="utf-8"?>
<!-- Generator: Adobe Illustrator 20.0.0, SVG Export Plug-In . SVG Version: 6.00 Build 0)  -->
<svg version="1.1" xmlns="http://www.w3.org/2000/svg" xmlns:xlink="http://www.w3.org/1999/xlink" x="0px" y="0px"
	 viewBox="0 0 190 190" style="enable-background:new 0 0 190 190;" xml:space="preserve">
<style type="text/css">
	.st0{fill:#756055;stroke:#010202;stroke-width:0.2684;stroke-miterlimit:10;}
	.st1{fill:#756055;}
	.st2{fill-rule:evenodd;clip-rule:evenodd;fill:#756055;}
</style>
<g id="iconos">
	<g>
		<path class="st1" d="M26.9,112.9c0.1,0.8,0.6,1.5,1.4,1.6c17.9,3.5,34.8,19.8,39.8,24.8c1.3,1.3,5.1,5.1,5.1,5.1
			c4.3,4.3,10.1,6.8,16.2,6.8c3.3,0,6.5-0.7,9.5-2.1l10,10c1.5,1.5,3.9,1.5,5.4,0l6-6c1.5-1.5,1.5-3.9,0-5.4l-10-10
			c3.9-8.5,2.3-18.8-4.6-25.7c0,0-3.8-3.8-5.1-5.1C90.2,96.2,86.3,80.7,85,73.7c-0.1-0.7-0.6-1.2-1.3-1.4c-0.7-0.2-1.4,0-1.8,0.6
			c-4.1,4.9-6.6,9.7-8,14.5C60.6,76.6,43.7,65.9,35,65.9c-2.3,0-4.2,0.7-5.5,2c-4,4-2,12.5,6.3,26.1c2.8,4.5,6.1,9.3,9.6,14
			c-7.2,0.2-13.1,1.7-17.2,3.1C27.3,111.3,26.9,112.1,26.9,112.9z M53.6,108.3C40.8,92.5,31.8,75.1,33.9,72.5
			c2.1-2.6,25.4,10.8,38.5,22c-0.7,8.1,1.3,15.4,3.9,21.1C68.2,111.2,60.5,109,53.6,108.3z"/>
		<g>
			<path class="st1" d="M51.4,88c0.2-0.2,0.2-0.6,0-0.9l-4.3-4.3c-0.1-0.1-0.3-0.2-0.4-0.2c-0.2,0-0.3,0.1-0.4,0.2l-1.9,1.9
				c-0.2,0.2-0.2,0.6,0,0.9l4.3,4.3c0.1,0.1,0.3,0.2,0.4,0.2c0.2,0,0.3-0.1,0.4-0.2L51.4,88z"/>
			<path class="st1" d="M61.5,92.5c0.2-0.2,0.2-0.6,0-0.9l-4.3-4.3c-0.1-0.1-0.3-0.2-0.4-0.2s-0.3,0.1-0.4,0.2l-1.9,1.9
				c-0.2,0.2-0.2,0.6,0,0.9l4.3,4.3c0.1,0.1,0.3,0.2,0.4,0.2c0.2,0,0.3-0.1,0.4-0.2L61.5,92.5z"/>
			<path class="st1" d="M48.8,94.8c-0.2,0.2-0.2,0.6,0,0.9l4.3,4.3c0.1,0.1,0.3,0.2,0.4,0.2c0.2,0,0.3-0.1,0.4-0.2l1.9-1.9
				c0.2-0.2,0.2-0.6,0-0.9l-4.3-4.3c-0.1-0.1-0.3-0.2-0.4-0.2c-0.2,0-0.3,0.1-0.4,0.2L48.8,94.8z"/>
			<path class="st1" d="M65.9,102.5c0.2-0.2,0.2-0.6,0-0.9l-4.3-4.3c-0.1-0.1-0.3-0.2-0.4-0.2c-0.2,0-0.3,0.1-0.4,0.2l-1.9,1.9
				c-0.1,0.1-0.2,0.3-0.2,0.4c0,0.2,0.1,0.3,0.2,0.4l4.7,4.7L65.9,102.5z"/>
		</g>
	</g>
	<g>
		<path class="st1" d="M118.8,93.5c0,0,2.2,3.5,10.5,3.6c9.4,0.1,17.4-13.8,17.4-13.8s-1.8-0.7-11.6-0.7
			C125.2,82.8,118.8,93.5,118.8,93.5z"/>
		<path class="st1" d="M116.2,91.3c0,0,9.6-8.5,6.5-17.7c-3.1-9.1-4.8-10.3-4.8-10.3s-9.3,9.5-7.1,18.3
			C112.7,89.5,116.2,91.3,116.2,91.3z"/>
		<path class="st1" d="M127,69.8c-2.9,4.2-1.4,12.8-1.4,12.8s8.9-1,12-5.4c3.1-4.4,5.1-20.1,5.1-20.1S129.9,65.6,127,69.8z"/>
		<path class="st1" d="M105.1,108c0,0,1.9,3.7,10.2,4.5c9.4,0.9,18.5-12.3,18.5-12.3s-1.7-0.9-11.5-1.6
			C112.3,97.8,105.1,108,105.1,108z"/>
		<path class="st1" d="M102.7,105.6c0,0,10.2-7.7,7.9-17.1c-2.4-9.4-3.9-10.6-3.9-10.6s-10,8.7-8.6,17.7
			C99.4,103.5,102.7,105.6,102.7,105.6z"/>
		<path class="st1" d="M140.9,78.4c9.5-13.8,17.5-28.5,23.9-44c0.2-0.6,0-1.3-0.5-1.5c-0.5-0.2-1.2,0.1-1.4,0.7
			c-6.5,15.8-14.7,30.8-24.5,44.8C139.2,78.4,140.1,78.4,140.9,78.4z"/>
		<path class="st1" d="M166.9,41c-0.5-0.2-1.2,0.1-1.4,0.6c-5.7,12.9-12.6,25.2-20.5,36.9c1,0,1.8,0.1,2.5,0.2
			c7.7-11.5,14.4-23.6,20-36.2C167.7,41.9,167.5,41.2,166.9,41z"/>
		<path class="st1" d="M144.2,63c7.1-11.8,13.1-24.1,17.9-36.9c0.2-0.6,0-1.2-0.6-1.4c-0.6-0.2-1.2,0.1-1.4,0.7
			c-4.9,13-7.9,19.3-14.7,31.3C145.2,58.3,144.8,60.6,144.2,63z"/>
		<path class="st1" d="M141,30.8c0.2-0.5,0-1.1-0.6-1.4c-0.5-0.2-1.2,0-1.4,0.5c-5.9,13.3-9.4,19.6-17.4,31.5
			c0.3,0.6,0.7,1.3,1.2,2.1C131.2,51.2,134.9,44.6,141,30.8z"/>
		<path class="st1" d="M125.5,69.5c8.8-13.7,16.1-27,22.9-41.8c0.2-0.5,0-1.2-0.6-1.4c-0.5-0.2-1.2,0-1.4,0.6
			c-6.5,14.3-13.5,27.1-21.9,40.3C124.9,67.9,125.2,68.6,125.5,69.5z"/>
		<path class="st1" d="M141.6,54.4c6.6-11.8,9.5-17.9,14.4-30.7c0.2-0.6-0.1-1.2-0.6-1.4s-1.2,0.1-1.4,0.7
			c-4.7,12.3-10.5,24.2-17.2,35.6C138.6,56.9,140.3,55.5,141.6,54.4z"/>
	</g>
</g>
<g id="Credits">
</g>
</svg>
