<?xml version="1.0" encoding="utf-8"?>
<!-- Generator: Adobe Illustrator 20.0.0, SVG Export Plug-In . SVG Version: 6.00 Build 0)  -->
<svg version="1.1" xmlns="http://www.w3.org/2000/svg" xmlns:xlink="http://www.w3.org/1999/xlink" x="0px" y="0px"
	 viewBox="0 0 190 190" style="enable-background:new 0 0 190 190;" xml:space="preserve">
<style type="text/css">
	.st0{fill:#756055;stroke:#010202;stroke-width:0.2684;stroke-miterlimit:10;}
	.st1{fill:#756055;}
	.st2{fill-rule:evenodd;clip-rule:evenodd;fill:#756055;}
</style>
<g id="iconos">
	<rect x="21" y="120.7" class="st1" width="146" height="11.3"/>
	<polygon class="st1" points="123.3,157.3 66.7,157.3 95,129 	"/>
	<path class="st1" d="M151.2,56.2l-1.8-8.9c-0.8-3.2-4.3-4.8-7.3-3.4l-0.1,0c-1.4,0.7-3.2,0.7-4.6,0c-3-1.5-6.5,0.2-7.3,3.4
		l-1.8,8.9c-5.3,0.7-8.8,1.9-8.8,3.3c0,2.2,9,4,20.2,4c11.2,0,20.2-1.8,20.2-4C160,58.1,156.5,56.9,151.2,56.2z"/>
	<path class="st1" d="M151.9,64.9v-4h-24.3v4c0,6.7,5.4,12.1,12.1,12.1C146.5,77,151.9,71.6,151.9,64.9z"/>
	<path class="st1" d="M151.9,77.7v12.1h-8.1v-8.5c-1.3,0.3-2.7,0.4-4.1,0.4c-1.4,0-2.7-0.2-4-0.4v8.5h-8.1V77.7
		c-4.5,0-8.1,3.6-8.1,8.1v28.3H160V85.8C160,81.3,156.4,77.7,151.9,77.7z M151.9,110h-24.3v-12h24.3V110z"/>
	<rect x="131.7" y="102" class="st1" width="4" height="4"/>
	<rect x="143.8" y="102" class="st1" width="4" height="4"/>
	<rect x="40.9" y="102" class="st1" width="4" height="4"/>
	<rect x="53.1" y="102" class="st1" width="4" height="4"/>
	<path class="st1" d="M149.6,56.3c1.3,0.6,2.4,1.2,2.4,1.2l0.3-0.4c0.2,0.2,0.5,0.3,0.8,0.3c0.1,0,0.3,0,0.4-0.1l3.5-1.2
		c0.7-0.2,1-1,0.8-1.6c-0.2-0.7-1-1-1.6-0.8l-1.3,0.4l0.9-1c0.1,0,0.1,0,0.2,0l3.7,0.2c0,0,0,0,0.1,0c0.7,0,1.2-0.5,1.3-1.2
		c0-0.7-0.5-1.3-1.2-1.3l-1.9-0.1l1.1-1.2c0.5-0.5,0.4-1.3-0.1-1.8c-0.5-0.5-1.3-0.4-1.8,0.1l-1.1,1.3l-0.1-1.8
		c0-0.7-0.6-1.2-1.3-1.2c-0.7,0-1.2,0.6-1.2,1.3l0.2,3.7c0,0.2,0.1,0.4,0.2,0.6l-0.7,0.8l0.3-1.4c0.1-0.7-0.3-1.4-1-1.5
		c-0.7-0.1-1.4,0.3-1.5,1l-0.7,3.6c-0.1,0.4,0.1,0.9,0.4,1.1L149.6,56.3C149.6,56.2,149.6,56.3,149.6,56.3z"/>
	<path class="st1" d="M67,59.4c0-1.6-1.1-2.9-2.5-3.3c0.6-0.6,1-1.5,1-2.4c0-1.9-1.5-3.4-3.4-3.4c-0.2,0-0.4,0-0.5,0
		c0.1-0.3,0.2-0.7,0.2-1.1c0-1.9-1.5-3.4-3.4-3.4c-1,0-1.9,0.4-2.5,1.1c-0.1-1.8-1.6-3.3-3.4-3.3c-1.2,0-2.3,0.6-2.9,1.6
		c-0.6-1.1-1.7-1.8-3-1.8c-1.6,0-3,1.2-3.4,2.7c-0.5-0.3-1.1-0.5-1.7-0.5c-1.9,0-3.4,1.5-3.4,3.4c0,0.4,0.1,0.7,0.2,1
		c-0.4-0.2-0.9-0.3-1.5-0.3c-1.9,0-3.4,1.5-3.4,3.4c0,1.2,0.7,2.3,1.6,2.9c-1.5,0.3-2.7,1.7-2.7,3.3c0,1.9,1.5,3.4,3.4,3.4
		c0.1,0,0.3,0,0.4,0c-0.2,0.4-0.3,0.9-0.3,1.3c0,1.1,0.5,2.1,1.3,2.7C38,72.6,43,77,49,77c5.8,0,10.6-4.1,11.8-9.5
		c1.7-0.2,3-1.6,3-3.4c0-0.5-0.1-0.9-0.3-1.3c0,0,0,0,0,0C65.5,62.8,67,61.3,67,59.4z"/>
	<path class="st1" d="M61.2,77.7L61.2,77.7h-1c0.5,0.4,0.7,1.1,0.7,1.8c0,1.4-1.1,2.5-2.5,2.5c-1.4,0-2.5-1.1-2.5-2.5
		c0-0.7,0.3-1.3,0.7-1.8h-4.3c-0.3,1.6-1.8,2.8-3.5,2.8s-3.2-1.2-3.5-2.8h-4.3c0.5,0.4,0.7,1.1,0.7,1.8c0,1.4-1.1,2.5-2.5,2.5
		c-1.4,0-2.5-1.1-2.5-2.5c0-0.7,0.3-1.3,0.7-1.8h-0.9c-4.5,0-8.1,3.6-8.1,8.1v28.3h40.5V85.8C69.3,81.3,65.7,77.7,61.2,77.7z
		 M43,88.2c-1.4,0-2.5-1.1-2.5-2.5c0-1.4,1.1-2.5,2.5-2.5c1.4,0,2.5,1.1,2.5,2.5C45.5,87.1,44.4,88.2,43,88.2z M50,101.2
		c-3.4-0.6-7.7-6.7-2.6-12.8c1.8-2.1,7.1,0.6,4.6,4.3c-1.6,2.5-2.9,5.2-0.1,7c0.8,0.5,2.2,0,2.2,0S53.8,101.9,50,101.2z M55.8,88.2
		c-1.4,0-2.5-1.1-2.5-2.5c0-1.4,1.1-2.5,2.5-2.5c1.4,0,2.5,1.1,2.5,2.5C58.3,87.1,57.2,88.2,55.8,88.2z"/>
</g>
<g id="Credits">
</g>
</svg>
