<?xml version="1.0" encoding="utf-8"?>
<!-- Generator: Adobe Illustrator 20.0.0, SVG Export Plug-In . SVG Version: 6.00 Build 0)  -->
<svg version="1.1" xmlns="http://www.w3.org/2000/svg" xmlns:xlink="http://www.w3.org/1999/xlink" x="0px" y="0px"
	 viewBox="0 0 190 190" style="enable-background:new 0 0 190 190;" xml:space="preserve">
<style type="text/css">
	.st0{fill:#756055;stroke:#010202;stroke-width:0.2684;stroke-miterlimit:10;}
	.st1{fill:#756055;}
	.st2{fill-rule:evenodd;clip-rule:evenodd;fill:#756055;}
</style>
<g id="iconos">
	<g>
		<path class="st1" d="M133.5,33.4l-8.3,8.3l1.4,1.4c0,0,0,0,0,0l18.8,18.8c1.2,1.2,2.8,1.9,4.6,1.9c1.7,0,3.4-0.7,4.6-1.9l3.7-3.7
			L133.5,33.4z"/>
		<path class="st1" d="M129.1,81.3l-1.5-1.5l-1.5-1.5l-3.7-3.7c-0.6-0.6-1.4-0.9-2.2-0.9c-0.8,0-1.6,0.3-2.2,0.9
			c-1.2,1.2-1.2,3.2,0,4.5l3.7,3.7l1.5,1.5l1.5,1.5l2.3,2.3c0.6,0.6,1.4,0.9,2.2,0.9c0.8,0,1.6-0.3,2.2-0.9c1.2-1.2,1.2-3.2,0-4.5
			L129.1,81.3z"/>
		<path class="st1" d="M121.6,88.8l-1.5-1.5l-1.5-1.5l-3.7-3.7c-0.6-0.6-1.4-0.9-2.2-0.9c-0.8,0-1.6,0.3-2.2,0.9
			c-1.2,1.2-1.2,3.2,0,4.5l3.7,3.7l1.5,1.5l1.5,1.5l2.3,2.3c0.6,0.6,1.4,0.9,2.2,0.9c0.8,0,1.6-0.3,2.2-0.9c1.2-1.2,1.2-3.2,0-4.5
			L121.6,88.8z"/>
		<path class="st1" d="M116.4,98.7l-2.3-2.3l-1.5-1.5l-1.5-1.5l-3.7-3.7c-0.6-0.6-1.4-0.9-2.2-0.9c-0.8,0-1.6,0.3-2.2,0.9
			c-0.6,0.6-0.9,1.4-0.9,2.2c0,0.8,0.3,1.6,0.9,2.2c0,0,0,0,0,0l3.7,3.7l1.5,1.5l1.5,1.5l2.3,2.3c0.6,0.6,1.4,0.9,2.2,0.9
			c0.8,0,1.6-0.3,2.2-0.9c0.6-0.6,0.9-1.4,0.9-2.2C117.4,100,117,99.3,116.4,98.7C116.4,98.7,116.4,98.7,116.4,98.7z"/>
		<path class="st1" d="M106.6,103.8l-1.5-1.5l-1.5-1.5l-3.7-3.7c-0.6-0.6-1.4-0.9-2.2-0.9c-0.8,0-1.6,0.3-2.2,0.9
			c-1.2,1.2-1.2,3.3,0,4.5l3.7,3.7l1.5,1.5l1.5,1.5l2.3,2.3c0.6,0.6,1.4,0.9,2.2,0.9c0.9,0,1.6-0.3,2.2-0.9c1.2-1.2,1.2-3.3,0-4.5
			L106.6,103.8z"/>
		<path class="st1" d="M118.9,49.7c-2.7,0-5.2-1-7.1-3c-1.1-1.1-2.6-1.7-4.1-1.7c-1.6,0-3,0.6-4.1,1.7l-1.4,1.4L117.8,64
			c0.4,0.4,0.6,0.9,0.6,1.5c0,0.6-0.2,1.1-0.6,1.5l-4.7,4.6c-1.9,1.9-4.4,2.9-7.1,2.9c-2.7,0-5.2-1.1-7.1-3L92.3,65
			c-0.9-0.9-2.2-1.4-3.5-1.4c-1,0-2,0.3-2.9,0.9L70.6,79.8l0,0l-3,3c-1.2,1.2-1.2,3.2,0,4.5c0.6,0.6,1.4,0.9,2.2,0.9
			c0.8,0,1.6-0.3,2.2-0.9c0.8-0.8,2.2-0.8,3,0c0.4,0.4,0.6,1,0.6,1.5c0,0.6-0.2,1.1-0.6,1.5c-1.2,1.2-1.2,3.3,0,4.5
			c0.6,0.6,1.4,0.9,2.2,0.9c0.8,0,1.6-0.3,2.2-0.9c0.8-0.8,2.2-0.8,3,0c0.4,0.4,0.6,1,0.6,1.5c0,0.5-0.2,1.1-0.6,1.5
			c-0.6,0.6-0.9,1.4-0.9,2.2c0,0.8,0.3,1.6,0.9,2.2c0.6,0.6,1.4,0.9,2.2,0.9c0.8,0,1.6-0.3,2.2-0.9c0.8-0.8,2.2-0.8,3,0
			c0.4,0.4,0.6,1,0.6,1.5c0,0.5-0.2,1.1-0.6,1.5c-1.2,1.2-1.2,3.3,0,4.5c0.6,0.6,1.4,0.9,2.2,0.9c0.8,0,1.6-0.3,2.2-0.9l1.5-1.5
			l-3.7-3.7c-2.9-2.9-2.9-7.6,0-10.5c1.4-1.4,3.3-2.2,5.3-2.2c0,0,0,0,0.1,0c0,0,0,0,0-0.1c0-2,0.8-3.9,2.2-5.3
			c1.4-1.4,3.3-2.2,5.3-2.2c0,0,0,0,0.1,0c0-1.9,0.7-3.9,2.2-5.3c1.4-1.4,3.3-2.2,5.3-2.2c0,0,0,0,0.1,0c0-1.9,0.7-3.9,2.2-5.3
			c1.4-1.4,3.3-2.2,5.3-2.2c2,0,3.9,0.8,5.3,2.2l3.7,3.7l11.8-11.8l-15.8-15.8C123.3,49,121.2,49.7,118.9,49.7z"/>
		<path class="st1" d="M82.2,61.9c0.3-0.3,0.5-0.5,0.8-0.7c1.4-1.1,3.2-1.8,5-2c0.2,0,0.5,0,0.7,0c0.7,0,1.4,0.1,2.1,0.2
			c1.7,0.4,3.2,1.2,4.4,2.4l6.6,6.6c1.1,1.1,2.6,1.7,4.1,1.7c1.5,0,3-0.6,4.1-1.7l3.2-3.1L99.1,51.3l-1.5-1.5l-1.5-1.5L93.8,46
			c-1.1-1.1-2.6-1.7-4.1-1.7c-1.6,0-3,0.6-4.1,1.7c-1.9,1.9-4.4,3-7.1,3c-2.3,0-4.4-0.8-6.2-2.1L56.4,62.6L69,75.3L82.2,61.9z"/>
		<path class="st1" d="M70.7,42.3l1.5-1.5l-8.3-8.3L39,57.4l3.7,3.7c1.2,1.2,2.8,1.9,4.6,1.9s3.4-0.7,4.6-1.9L70.7,42.3
			C70.7,42.3,70.7,42.3,70.7,42.3z"/>
	</g>
	<path class="st1" d="M127,96.5c-0.3,0.5-0.6,0.9-1,1.3c-1.2,1.2-2.7,1.8-4.4,1.8c-0.3,0-0.6,0-1-0.1c-0.2,0.1-0.3,0.2-0.5,0.3
		c0.1,0.4,0.1,0.8,0.1,1.1c0,0,0,0,0,0.1c1-0.5,1.9-1,2.8-1.6l12.4,7.2c-3.3,1.9-6.9,3.8-10.7,4.8c-1.9-1.3-3.8-2.5-5.8-3.7
		c-0.7-0.4-1.5-0.8-2.2-1.2c-0.4,0.2-0.9,0.4-1.4,0.5c1,0.5,2.1,1.1,3.1,1.7c1.6,1,3.2,2,4.8,3c-1.3,0.2-2.6,0.4-4,0.3
		c-1.6-0.1-3-0.2-4.4-0.3c-1.1-0.1-2.1-0.2-3-0.2c-0.2,0.4-0.5,0.8-0.9,1.2c1.5,1.7,2.8,3.4,4.2,5.1c0.7,0.9,1.4,1.8,2.1,2.7
		c2.3,2.8,4.4,5.1,6.4,7c-2.3,1.1-4.7,2.4-6.9,3.7c-1.9,1.1-3.8,2.3-5.6,3.6c-0.9-0.8-1.7-1.6-2.6-2.5c-2.1-2.3-4.1-4.7-6-7.2
		c-1.4-1.8-2.8-3.5-4.3-5.3c0.7-0.8,1.5-1.6,2.3-2.4c1.4-1.4,2.7-2.4,3.9-3.1c-0.4-0.1-0.8-0.3-1.2-0.6c-1.1,0.7-2.3,1.7-3.5,2.9
		c-0.8,0.8-1.5,1.6-2.2,2.4c-0.7-0.8-1.5-1.6-2.2-2.4c-1.2-1.2-2.3-2.1-3.4-2.8c-1.6,0-3.1-0.7-4.2-1.8c0,0-0.1-0.1-0.1-0.1
		c-0.8-0.2-1.6-0.3-2.5-0.3c0.4-0.4,0.8-0.9,1.2-1.3c0,0,0.1-0.1,0.1-0.1c-0.2-0.4-0.3-0.8-0.4-1.2c-0.2,0.2-0.4,0.3-0.5,0.5
		c-0.6,0.7-1.3,1.3-1.9,2c-1.1,0-2.2,0.1-3.4,0.2c-1.4,0.1-2.8,0.2-4.4,0.3c-1.3,0-2.7-0.1-4-0.3c1.6-1,3.2-2.1,4.8-3
		c1.8-1,3.6-2,5.4-2.9c-0.4-0.2-0.8-0.4-1.1-0.7c-1.6,0.8-3.2,1.7-4.8,2.6c-2,1.2-3.9,2.4-5.8,3.7c-3.8-1-7.4-2.9-10.7-4.8l12.4-7.2
		c2.3,1.3,4.6,2.6,7.1,3.7c-0.2-0.5-0.4-1-0.6-1.5c-1.8-0.8-3.6-1.8-5.4-2.8l1.1-0.6c-0.6-0.3-1.1-0.7-1.6-1.1
		c-0.7-0.7-1.1-1.4-1.4-2.2l-45,26.5l71.2,41.7l71.2-41.7L127,96.5z M136.7,107.2l12.4,7.2c-3.5,2-7.1,4.1-10.7,6
		c-1-0.6-2-1.2-2.9-1.9c-1.9-1.3-3.8-2.6-5.7-3.9c-1.2-0.8-2.4-1.6-3.6-2.5C129.9,111,133.5,109,136.7,107.2z M118.3,119.7
		c-0.7-0.9-1.4-1.8-2.1-2.7c-1.2-1.5-2.4-3-3.6-4.5c0.7,0,1.5,0.1,2.4,0.2c1.3,0.1,2.8,0.2,4.4,0.3c1.8,0.1,3.6-0.2,5.3-0.6
		c1.5,1,3,2,4.4,3c1.9,1.3,3.8,2.6,5.8,3.9c0.8,0.5,1.6,1,2.4,1.5c-0.9,0.5-1.8,1-2.7,1.4c-1.8,0.9-3.6,1.8-5.5,2.6
		c-1.4,0.6-2.7,1.3-4.1,2C122.8,125,120.7,122.7,118.3,119.7z M101.9,125.7c1.9,2.4,3.9,4.9,6.1,7.2c0.8,0.8,1.6,1.6,2.4,2.4
		c-1.3,0.9-2.7,1.8-4,2.7c-1.9,1.3-3.8,2.6-5.8,3.9c-1,0.6-1.9,1.2-2.9,1.9c-1-0.6-1.9-1.2-2.9-1.9c-1.9-1.3-3.9-2.6-5.8-3.9
		c-1.3-0.9-2.6-1.8-4-2.7c0.8-0.8,1.6-1.5,2.4-2.4c2.2-2.3,4.2-4.8,6.1-7.2c1.3-1.7,2.7-3.4,4.2-5.1
		C99.2,122.3,100.6,124,101.9,125.7z M84.4,112.6c3.4,0,6.3,0.9,10.3,4.8c0.8,0.8,1.5,1.6,2.3,2.4c-1.5,1.7-2.9,3.5-4.3,5.3
		c-1.9,2.4-3.9,4.9-6,7.2c-0.8,0.9-1.7,1.7-2.6,2.5c-1.8-1.2-3.7-2.4-5.6-3.6c-2.2-1.3-4.6-2.5-6.9-3.7c2.1-1.9,4.1-4.2,6.4-7
		c0.7-0.9,1.4-1.8,2.1-2.6C81.5,116,82.9,114.3,84.4,112.6z M70.8,112.5c1.7,0.4,3.5,0.6,5.3,0.6c1.6-0.1,3.1-0.2,4.4-0.3
		c0.8-0.1,1.6-0.1,2.4-0.2c-1.3,1.5-2.5,3-3.6,4.5c-0.7,0.9-1.4,1.8-2.1,2.6c-2.4,3-4.5,5.3-6.6,7.2c-1.4-0.7-2.8-1.3-4.1-2
		c-1.8-0.9-3.6-1.7-5.4-2.6c-0.9-0.5-1.8-0.9-2.7-1.4c0.8-0.5,1.6-1,2.4-1.5c1.9-1.3,3.9-2.6,5.8-3.9
		C67.8,114.5,69.3,113.5,70.8,112.5z M58.8,107.2c3.2,1.8,6.8,3.8,10.6,4.9c-1.2,0.8-2.4,1.6-3.6,2.5c-1.9,1.3-3.8,2.6-5.8,3.9
		c-1,0.6-2,1.3-2.9,1.9c-3.6-1.9-7.2-4-10.7-6L58.8,107.2z M34.4,121.2l10.8-6.2c3.5,2,7.1,4.1,10.8,6c-3.6,2.3-7.3,4.4-10.8,6.4
		L34.4,121.2z M46.3,128.1c3.5-2,7.2-4.2,10.8-6.5c1.1,0.6,2.2,1.2,3.3,1.7c1.8,0.9,3.6,1.8,5.5,2.6c1.2,0.6,2.5,1.2,3.7,1.8
		c-3.2,2.8-6.5,4.9-10.9,7.5L46.3,128.1z M59.8,135.9c4.3-2.6,7.6-4.8,10.9-7.7c2.4,1.2,4.9,2.4,7.2,3.8c1.8,1.1,3.6,2.2,5.3,3.4
		c-3.5,3.1-7.4,5.5-11,7.6L59.8,135.9z M73.4,143.7c3.6-2.1,7.3-4.6,10.8-7.6c1.4,1,2.8,1.9,4.2,2.9c1.9,1.3,3.8,2.6,5.8,3.9
		c0.8,0.5,1.7,1.1,2.5,1.6c-3.7,2.3-7.4,4.5-10.9,6.5L73.4,143.7z M97.7,157.8L87,151.6c3.5-2,7.1-4.2,10.8-6.4
		c3.6,2.3,7.3,4.4,10.8,6.4L97.7,157.8z M109.6,150.9c-3.5-2-7.2-4.2-10.9-6.5c0.8-0.5,1.7-1,2.5-1.6c1.9-1.3,3.9-2.6,5.8-3.9
		c1.4-1,2.8-1.9,4.2-2.9c3.5,3.1,7.3,5.5,10.8,7.6L109.6,150.9z M123.2,143.1c-3.6-2.1-7.4-4.6-11-7.6c1.8-1.2,3.5-2.3,5.3-3.4
		c2.3-1.4,4.8-2.6,7.2-3.8c3.2,2.9,6.5,5.1,10.9,7.7L123.2,143.1z M136.7,135.3c-4.4-2.6-7.7-4.7-10.9-7.5c1.2-0.6,2.5-1.2,3.7-1.8
		c1.8-0.9,3.7-1.7,5.5-2.6c1.1-0.6,2.2-1.1,3.3-1.7c3.6,2.3,7.3,4.4,10.8,6.5L136.7,135.3z M139.5,121c3.7-1.9,7.2-4,10.8-6
		l10.8,6.2l-10.8,6.2C146.8,125.5,143.1,123.3,139.5,121z"/>
</g>
<g id="Credits">
</g>
</svg>
