<?xml version="1.0" encoding="utf-8"?>
<!-- Generator: Adobe Illustrator 20.0.0, SVG Export Plug-In . SVG Version: 6.00 Build 0)  -->
<svg version="1.1" xmlns="http://www.w3.org/2000/svg" xmlns:xlink="http://www.w3.org/1999/xlink" x="0px" y="0px"
	 viewBox="0 0 190 190" style="enable-background:new 0 0 190 190;" xml:space="preserve">
<style type="text/css">
	.st0{fill:#756055;stroke:#010202;stroke-width:0.2684;stroke-miterlimit:10;}
	.st1{fill:#756055;}
	.st2{fill-rule:evenodd;clip-rule:evenodd;fill:#756055;}
</style>
<g id="iconos">
	<g>
		<g>
			<path class="st1" d="M133.5,131.9l-6.5,17.7c-2.2,6.1-9,9.2-15,7l-4.6-1.7c-0.1,0-0.2-0.1-0.4-0.1c-0.1,0-0.3-0.1-0.4-0.1
				c-5.7-2.1-8.6-8.4-6.6-14.1l4.5-12.4c0,0,0-0.1,0-0.1l6.9-18.8c0,0,0-0.1,0-0.1l0.1-0.4l0,0c1.5-3.7,4.9-6.2,8.7-8l20.6-9.6l0,0
				c2.4-1.1,5.3-0.1,6.4,2.4c1.1,2.4,0.1,5.3-2.3,6.4l0,0l-16.1,7.5c-1.3,0.6-1.8,2.1-1.2,3.4c0.6,1.3,2.1,1.8,3.4,1.2l13.6-6.3
				l2.7-1.3l4.7-2.2c1.2-0.6,2-1.5,2.4-2.7l10.4-28.6l0,0c0.9-2.5,3.7-3.8,6.2-2.9c2.5,0.9,3.8,3.7,2.9,6.2l0,0l-14.7,40.2
				c-0.4,1.2-1.3,2.2-2.5,2.7c-0.2,0.1-0.4,0.2-0.5,0.3L133.5,131.9z"/>
			<path class="st1" d="M56.5,131.9l6.5,17.7c2.2,6.1,9,9.2,15,7l4.6-1.7c0.1,0,0.2-0.1,0.4-0.1c0.1,0,0.3-0.1,0.4-0.1
				c5.7-2.1,8.6-8.4,6.6-14.1l-4.5-12.4c0,0,0-0.1,0-0.1l-6.9-18.8c0,0,0-0.1,0-0.1l-0.1-0.4l0,0c-1.5-3.7-4.9-6.2-8.7-8l-20.6-9.6
				l0,0c-2.4-1.1-5.3-0.1-6.4,2.4c-1.1,2.4-0.1,5.3,2.3,6.4l0,0l16.1,7.5c1.3,0.6,1.8,2.1,1.2,3.4c-0.6,1.3-2.1,1.8-3.4,1.2
				l-13.6-6.3l-2.7-1.3l-4.7-2.2c-1.2-0.6-2-1.5-2.4-2.7L24.8,71.1l0,0c-0.9-2.5-3.7-3.8-6.2-2.9c-2.5,0.9-3.8,3.7-2.9,6.2l0,0
				l14.7,40.2c0.4,1.2,1.3,2.2,2.5,2.7c0.2,0.1,0.4,0.2,0.5,0.3L56.5,131.9z"/>
		</g>
		<path class="st1" d="M149.8,63.9l-0.5-4c1.4-0.8,2.3-3.3,2.3-6.1c0-3.5-1.5-13.6-3.4-13.6c-1.8,0-3.4,10.1-3.4,13.6
			c0,3,1,5.5,2.6,6.2l-0.2,1.9c-1.8-1.3-3.7-2.5-5.6-3.6l-0.3-2.5c1.6-0.9,2.7-3.9,2.7-7.1c0-0.5,0-1.2-0.1-1.9c0-0.1,0-0.2,0-0.2
			c0-0.4-0.1-0.8-0.1-1.2c-0.5-5.1-2-12.7-3.7-12.7c-2.2,0-3.9,11.8-3.9,16c0,3.5,1.2,6.5,3,7.2l-0.1,1.2
			c-5.2-2.7-10.3-4.3-13.3-4.3c-6.4,0-11.9,9.7-14.2,19.6c-3.9,0.2-7.7,0.5-11.4,0.7c2.7-9.9,9.4-20,17.5-21.1
			c-0.9-0.1-1.8-0.1-2.8-0.1c-11.5,0-21.3,11-24.8,21.8c-3.9,0.1-7.5,0.2-10.5,0.4c3.8-10.4,14.7-21.4,27.7-22.1
			c-0.9-0.1-1.7-0.1-2.6-0.1c-16.1,0-29.8,11.1-34.6,22.1c-3.3-0.1-6.7-0.4-10-0.7c5.5-10.3,19.9-20.8,37-21.4c-0.9,0-1.6,0-2.4,0
			c-19.6,0-36.2,10-43,20.4c-2.8-0.5-5.4-0.9-7.7-1.2c7.8-9.7,24.7-18.8,44.5-19.2c-0.6,0-1.3,0-2,0c-23.5,1.2-43.2,7.3-51,17.2v13
			h118.8V68.4C153.1,66.8,151.5,65.3,149.8,63.9z"/>
	</g>
</g>
<g id="Credits">
</g>
</svg>
