<?xml version="1.0" encoding="utf-8"?>
<!-- Generator: Adobe Illustrator 20.0.0, SVG Export Plug-In . SVG Version: 6.00 Build 0)  -->
<svg version="1.1" xmlns="http://www.w3.org/2000/svg" xmlns:xlink="http://www.w3.org/1999/xlink" x="0px" y="0px"
	 viewBox="0 0 190 190" style="enable-background:new 0 0 190 190;" xml:space="preserve">
<style type="text/css">
	.st0{fill:#756055;stroke:#010202;stroke-width:0.2684;stroke-miterlimit:10;}
	.st1{fill:#756055;}
	.st2{fill-rule:evenodd;clip-rule:evenodd;fill:#756055;}
</style>
<g id="iconos">
	<path class="st1" d="M163.9,150.6v-5.7h-5.7v-4.3h-5.7V78.8h5.7v-5.7h5.7v-4.9L97.8,24l-66,44.2v4.9h5.7v5.7h5.7v61.7h-5.7v4.3
		h-5.7v5.7H26v5.7h143.6v-5.7H163.9z M76.3,140.5h-23V78.8h23V140.5z M109.3,140.5h-23V78.8h23V140.5z M97.8,72.1
		c-10.2,0-18.6-8.3-18.6-18.6S87.6,35,97.8,35s18.6,8.3,18.6,18.6S108.1,72.1,97.8,72.1z M142.3,140.5h-23V78.8h23V140.5z"/>
	<path class="st1" d="M106.1,47.4h-2.2v6.3l-1.4,1.4V43.5h-2.2v13.8l-1.4,1.4V38h-2.2v20.8l-1.4-1.4V43.5h-2.2v11.6l-1.4-1.4v-6.3
		h-2.2v17.2h0l0,0l7.2,7.2v5.7h2.2v-5.7l7.2-7.2l0,0h0V47.4z M96.7,68.8l-5-5v-2l5,5V68.8z M96.7,63.8l-5-5v-2l5,5V63.8z M98.9,61.8
		l5-5v2l-5,5V61.8z M98.9,66.9l5-5v2l-5,5V66.9z"/>
</g>
<g id="Credits">
</g>
</svg>
