<?xml version="1.0" encoding="utf-8"?>
<!-- Generator: Adobe Illustrator 20.0.0, SVG Export Plug-In . SVG Version: 6.00 Build 0)  -->
<svg version="1.1" xmlns="http://www.w3.org/2000/svg" xmlns:xlink="http://www.w3.org/1999/xlink" x="0px" y="0px"
	 viewBox="0 0 190 190" style="enable-background:new 0 0 190 190;" xml:space="preserve">
<style type="text/css">
	.st0{fill:#756055;stroke:#010202;stroke-width:0.2684;stroke-miterlimit:10;}
	.st1{fill:#756055;}
	.st2{fill-rule:evenodd;clip-rule:evenodd;fill:#756055;}
</style>
<g id="iconos">
	<path class="st2" d="M48.1,113.6c0,25.3,20.5,45.9,45.9,45.9s45.9-20.5,45.9-45.9c0-25.3-20.5-45.9-45.9-45.9S48.1,88.2,48.1,113.6
		z M57.8,113.6c0-2.3,0.2-4.6,0.6-6.8h9.4c-0.2,1.9-0.3,3.9-0.3,5.9c0,2,0.1,3.9,0.3,5.9h-9.7C57.9,116.8,57.8,115.2,57.8,113.6z
		 M61.9,97c2.8-5.5,7.1-10.2,12.3-13.6c-2,4.3-3.6,8.9-4.8,13.6H61.9z M88.8,77.8l0.3,0V97h-9.6C81.4,90,84.6,83.5,88.8,77.8z
		 M98.8,77.8l0.3,0c4.2,5.7,7.4,12.2,9.3,19.1h-9.6V77.8z M113.7,83.4c5.2,3.4,9.4,8.1,12.3,13.6h-7.5
		C117.4,92.2,115.8,87.7,113.7,83.4z M129.4,106.7c0.4,2.2,0.6,4.5,0.6,6.8c0,1.7-0.1,3.3-0.3,4.9H120c0.2-1.9,0.2-3.9,0.2-5.9
		c0-2-0.1-3.9-0.2-5.9H129.4z M126.9,128.2c-3.1,6.9-8.2,12.6-14.7,16.5c2.7-5.1,4.8-10.7,6.2-16.5H126.9z M75.6,144.7
		c-6.4-3.8-11.6-9.6-14.7-16.5h8.5C70.7,134,72.8,139.5,75.6,144.7z M77.6,106.7H89v11.7H77.6c-0.2-1.9-0.3-3.9-0.3-5.9
		C77.3,110.6,77.4,108.7,77.6,106.7z M98.8,106.7h11.4c0.2,1.9,0.3,3.9,0.3,5.9c0,2-0.1,3.9-0.3,5.9H98.8V106.7z M79.4,128.2H89
		v19.5C84.7,141.9,81.4,135.3,79.4,128.2z M98.8,128.2h9.6c-2,7.1-5.3,13.7-9.6,19.5V128.2z"/>
	<path class="st1" d="M106.7,71.7v-3c0-3.2-2.6-5.9-5.9-5.9h-1.2c2.1-9.7,8.2-13.9,23.4-14.6l-1.5,2.4l7.5-2.4l1.7,13.9l3.5-13.3
		l6.6,4.3l-2.5-7.5l16.4-2.3l-15.8-2.9l4.2-6.6l-7.5,2.5l-1.7-7.7l-3.6,7l-10-10.1l5.8,13.3l-7.7,1.7l3.2,1.6
		c-15.9,0.7-25.5,5.2-28.5,20.8h-3.2c-3.2,0-5.9,2.6-5.9,5.9v3H106.7z"/>
</g>
<g id="Credits">
</g>
</svg>
