<?xml version="1.0" encoding="utf-8"?>
<!-- Generator: Adobe Illustrator 20.0.0, SVG Export Plug-In . SVG Version: 6.00 Build 0)  -->
<svg version="1.1" xmlns="http://www.w3.org/2000/svg" xmlns:xlink="http://www.w3.org/1999/xlink" x="0px" y="0px"
	 viewBox="0 0 190 190" style="enable-background:new 0 0 190 190;" xml:space="preserve">
<style type="text/css">
	.st0{fill:#756055;stroke:#010202;stroke-width:0.2684;stroke-miterlimit:10;}
	.st1{fill:#756055;}
	.st2{fill-rule:evenodd;clip-rule:evenodd;fill:#756055;}
</style>
<g id="iconos">
	<path class="st1" d="M177.3,138.2h-5.9V66.6h5.6c0.5,0,0.7-0.7,0.2-0.9l-19.9-14.4c-2.4-1.5-5.9-1.5-8.2,0l-12.7,9.4v0l-2.3,1.7
		l-2.3-1.7v0L119,51.3c-2.3-1.5-5.8-1.5-8.2,0L96.1,62L81.5,51.5c-2.4-1.5-5.9-1.5-8.2,0l-12.7,9.4v0l-2.3,1.7l-2.3-1.7v0l-12.7-9.4
		c-2.3-1.5-5.8-1.5-8.2,0L15.2,65.8c-0.5,0.2-0.3,0.9,0.2,0.9H21v71.6h-5.9c-0.9,0-1.6,0.7-1.6,1.6v0.9c0,0.9,0.7,1.6,1.6,1.6h38.6
		H57h2.5h3.4h38.6c0.2,0,0.5-0.1,0.7-0.2h27.3h3.4h2.5h3.4h38.6c0.9,0,1.6-0.7,1.6-1.6v-0.9C178.9,138.9,178.2,138.2,177.3,138.2z
		 M96.8,66.8v71.4h-1.2V66.8H96.8z M32.7,77.7h4.6c0.6,0,1.1,0.5,1.1,1.1V82c0,0.6-0.5,1.1-1.1,1.1h-4.6c-0.6,0-1.1-0.5-1.1-1.1
		v-3.2C31.7,78.2,32.1,77.7,32.7,77.7z M31.7,74.9v-3.2c0-0.6,0.5-1.1,1.1-1.1h4.6c0.6,0,1.1,0.5,1.1,1.1v3.2c0,0.6-0.5,1.1-1.1,1.1
		h-4.6C32.1,76,31.7,75.5,31.7,74.9z M32.7,93.3h4.6c0.6,0,1.1,0.5,1.1,1.1v3.2c0,0.6-0.5,1.1-1.1,1.1h-4.6c-0.6,0-1.1-0.5-1.1-1.1
		v-3.2C31.7,93.7,32.1,93.3,32.7,93.3z M32.7,100.3h4.6c0.6,0,1.1,0.5,1.1,1.1v3.2c0,0.6-0.5,1.1-1.1,1.1h-4.6
		c-0.6,0-1.1-0.5-1.1-1.1v-3.2C31.7,100.8,32.1,100.3,32.7,100.3z M38.4,127.1c0,0.6-0.5,1.1-1.1,1.1h-4.6c-0.6,0-1.1-0.5-1.1-1.1
		v-3.2c0-0.6,0.5-1.1,1.1-1.1h4.6c0.6,0,1.1,0.5,1.1,1.1V127.1z M38.4,120.1c0,0.6-0.5,1.1-1.1,1.1h-4.6c-0.6,0-1.1-0.5-1.1-1.1
		v-3.2c0-0.6,0.5-1.1,1.1-1.1h4.6c0.6,0,1.1,0.5,1.1,1.1V120.1z M41,77.7h4.6c0.6,0,1.1,0.5,1.1,1.1V82c0,0.6-0.5,1.1-1.1,1.1H41
		c-0.6,0-1.1-0.5-1.1-1.1v-3.2C39.9,78.2,40.4,77.7,41,77.7z M39.9,74.9v-3.2c0-0.6,0.5-1.1,1.1-1.1h4.6c0.6,0,1.1,0.5,1.1,1.1v3.2
		c0,0.6-0.5,1.1-1.1,1.1H41C40.4,76,39.9,75.5,39.9,74.9z M41,93.3h4.6c0.6,0,1.1,0.5,1.1,1.1v3.2c0,0.6-0.5,1.1-1.1,1.1H41
		c-0.6,0-1.1-0.5-1.1-1.1v-3.2C39.9,93.7,40.4,93.3,41,93.3z M41,100.3h4.6c0.6,0,1.1,0.5,1.1,1.1v3.2c0,0.6-0.5,1.1-1.1,1.1H41
		c-0.6,0-1.1-0.5-1.1-1.1v-3.2C39.9,100.8,40.4,100.3,41,100.3z M46.7,127.1c0,0.6-0.5,1.1-1.1,1.1h-4.6c-0.6,0-1.1-0.5-1.1-1.1
		v-3.2c0-0.6,0.5-1.1,1.1-1.1h4.6c0.6,0,1.1,0.5,1.1,1.1V127.1z M46.7,120.1c0,0.6-0.5,1.1-1.1,1.1h-4.6c-0.6,0-1.1-0.5-1.1-1.1
		v-3.2c0-0.6,0.5-1.1,1.1-1.1h4.6c0.6,0,1.1,0.5,1.1,1.1V120.1z M53,66.8h-3.3l-10.4-7l-10.4,7h-3.3c-0.4,0-0.6-0.5-0.3-0.7
		l13.2-9.6c0.4-0.4,1.1-0.4,1.6,0l13.2,9.6C53.6,66.4,53.4,66.8,53,66.8z M57.3,138.4v-60V66.8h1.9v11.6v60H57.3z M76.5,127.1
		c0,0.6-0.5,1.1-1.1,1.1h-4.6c-0.6,0-1.1-0.5-1.1-1.1v-3.2c0-0.6,0.5-1.1,1.1-1.1h4.6c0.6,0,1.1,0.5,1.1,1.1V127.1z M76.5,120.1
		c0,0.6-0.5,1.1-1.1,1.1h-4.6c-0.6,0-1.1-0.5-1.1-1.1v-3.2c0-0.6,0.5-1.1,1.1-1.1h4.6c0.6,0,1.1,0.5,1.1,1.1V120.1z M76.6,104.5
		c0,0.6-0.5,1.1-1.1,1.1H71c-0.6,0-1.1-0.5-1.1-1.1v-3.2c0-0.6,0.5-1.1,1.1-1.1h4.6c0.6,0,1.1,0.5,1.1,1.1V104.5z M76.6,97.5
		c0,0.6-0.5,1.1-1.1,1.1H71c-0.6,0-1.1-0.5-1.1-1.1v-3.2c0-0.6,0.5-1.1,1.1-1.1h4.6c0.6,0,1.1,0.5,1.1,1.1V97.5z M76.6,82
		c0,0.6-0.5,1.1-1.1,1.1H71c-0.6,0-1.1-0.5-1.1-1.1v-3.2c0-0.6,0.5-1.1,1.1-1.1h4.6c0.6,0,1.1,0.5,1.1,1.1V82z M76.6,74.9
		c0,0.6-0.5,1.1-1.1,1.1H71c-0.6,0-1.1-0.5-1.1-1.1v-3.2c0-0.6,0.5-1.1,1.1-1.1h4.6c0.6,0,1.1,0.5,1.1,1.1V74.9z M84.8,127.1
		c0,0.6-0.5,1.1-1.1,1.1h-4.6c-0.6,0-1.1-0.5-1.1-1.1v-3.2c0-0.6,0.5-1.1,1.1-1.1h4.6c0.6,0,1.1,0.5,1.1,1.1V127.1z M84.8,120.1
		c0,0.6-0.5,1.1-1.1,1.1h-4.6c-0.6,0-1.1-0.5-1.1-1.1v-3.2c0-0.6,0.5-1.1,1.1-1.1h4.6c0.6,0,1.1,0.5,1.1,1.1V120.1z M84.9,104.5
		c0,0.6-0.5,1.1-1.1,1.1h-4.6c-0.6,0-1.1-0.5-1.1-1.1v-3.2c0-0.6,0.5-1.1,1.1-1.1h4.6c0.6,0,1.1,0.5,1.1,1.1V104.5z M84.9,97.5
		c0,0.6-0.5,1.1-1.1,1.1h-4.6c-0.6,0-1.1-0.5-1.1-1.1v-3.2c0-0.6,0.5-1.1,1.1-1.1h4.6c0.6,0,1.1,0.5,1.1,1.1V97.5z M84.9,82
		c0,0.6-0.5,1.1-1.1,1.1h-4.6c-0.6,0-1.1-0.5-1.1-1.1v-3.2c0-0.6,0.5-1.1,1.1-1.1h4.6c0.6,0,1.1,0.5,1.1,1.1V82z M84.9,74.9
		c0,0.6-0.5,1.1-1.1,1.1h-4.6c-0.6,0-1.1-0.5-1.1-1.1v-3.2c0-0.6,0.5-1.1,1.1-1.1h4.6c0.6,0,1.1,0.5,1.1,1.1V74.9z M77.2,59.9
		l-10.4,7h-3.3c-0.4,0-0.6-0.5-0.3-0.7l13.2-9.6c0.4-0.4,1.1-0.4,1.6,0l12.8,9.3c-0.2,0.3-0.1,0.8,0.4,0.8h0.1
		c-0.1,0.1-0.2,0.2-0.4,0.2h-3.3L77.2,59.9z M108.5,77.6h4.6c0.6,0,1.1,0.5,1.1,1.1v3.2c0,0.6-0.5,1.1-1.1,1.1h-4.6
		c-0.6,0-1.1-0.5-1.1-1.1v-3.2C107.5,78.1,107.9,77.6,108.5,77.6z M107.5,74.8v-3.2c0-0.6,0.5-1.1,1.1-1.1h4.6
		c0.6,0,1.1,0.5,1.1,1.1v3.2c0,0.6-0.5,1.1-1.1,1.1h-4.6C107.9,75.9,107.5,75.4,107.5,74.8z M108.5,93.1h4.6c0.6,0,1.1,0.5,1.1,1.1
		v3.2c0,0.6-0.5,1.1-1.1,1.1h-4.6c-0.6,0-1.1-0.5-1.1-1.1v-3.2C107.5,93.6,107.9,93.1,108.5,93.1z M108.5,100.1h4.6
		c0.6,0,1.1,0.5,1.1,1.1v3.2c0,0.6-0.5,1.1-1.1,1.1h-4.6c-0.6,0-1.1-0.5-1.1-1.1v-3.2C107.5,100.6,107.9,100.1,108.5,100.1z
		 M114.3,126.9c0,0.6-0.5,1.1-1.1,1.1h-4.6c-0.6,0-1.1-0.5-1.1-1.1v-3.2c0-0.6,0.5-1.1,1.1-1.1h4.6c0.6,0,1.1,0.5,1.1,1.1V126.9z
		 M114.3,119.9c0,0.6-0.5,1.1-1.1,1.1h-4.6c-0.6,0-1.1-0.5-1.1-1.1v-3.2c0-0.6,0.5-1.1,1.1-1.1h4.6c0.6,0,1.1,0.5,1.1,1.1V119.9z
		 M116.8,77.6h4.6c0.6,0,1.1,0.5,1.1,1.1v3.2c0,0.6-0.5,1.1-1.1,1.1h-4.6c-0.6,0-1.1-0.5-1.1-1.1v-3.2
		C115.7,78.1,116.2,77.6,116.8,77.6z M115.7,74.8v-3.2c0-0.6,0.5-1.1,1.1-1.1h4.6c0.6,0,1.1,0.5,1.1,1.1v3.2c0,0.6-0.5,1.1-1.1,1.1
		h-4.6C116.2,75.9,115.7,75.4,115.7,74.8z M116.8,93.1h4.6c0.6,0,1.1,0.5,1.1,1.1v3.2c0,0.6-0.5,1.1-1.1,1.1h-4.6
		c-0.6,0-1.1-0.5-1.1-1.1v-3.2C115.7,93.6,116.2,93.1,116.8,93.1z M116.8,100.1h4.6c0.6,0,1.1,0.5,1.1,1.1v3.2
		c0,0.6-0.5,1.1-1.1,1.1h-4.6c-0.6,0-1.1-0.5-1.1-1.1v-3.2C115.7,100.6,116.2,100.1,116.8,100.1z M122.5,126.9
		c0,0.6-0.5,1.1-1.1,1.1h-4.6c-0.6,0-1.1-0.5-1.1-1.1v-3.2c0-0.6,0.5-1.1,1.1-1.1h4.6c0.6,0,1.1,0.5,1.1,1.1V126.9z M122.5,119.9
		c0,0.6-0.5,1.1-1.1,1.1h-4.6c-0.6,0-1.1-0.5-1.1-1.1v-3.2c0-0.6,0.5-1.1,1.1-1.1h4.6c0.6,0,1.1,0.5,1.1,1.1V119.9z M128.8,66.7
		h-3.3l-10.4-7l-10.4,7h-3.3c0,0,0,0,0,0c0.3-0.2,0.3-0.7-0.1-0.8l0,0l13-9.4c0.4-0.4,1.1-0.4,1.6,0l13.2,9.6
		C129.4,66.2,129.2,66.7,128.8,66.7z M133.1,138.2v-60V66.6h1.9v11.6v60H133.1z M152.3,126.9c0,0.6-0.5,1.1-1.1,1.1h-4.6
		c-0.6,0-1.1-0.5-1.1-1.1v-3.2c0-0.6,0.5-1.1,1.1-1.1h4.6c0.6,0,1.1,0.5,1.1,1.1V126.9z M152.3,119.9c0,0.6-0.5,1.1-1.1,1.1h-4.6
		c-0.6,0-1.1-0.5-1.1-1.1v-3.2c0-0.6,0.5-1.1,1.1-1.1h4.6c0.6,0,1.1,0.5,1.1,1.1V119.9z M152.4,104.4c0,0.6-0.5,1.1-1.1,1.1h-4.6
		c-0.6,0-1.1-0.5-1.1-1.1v-3.2c0-0.6,0.5-1.1,1.1-1.1h4.6c0.6,0,1.1,0.5,1.1,1.1V104.4z M152.4,97.3c0,0.6-0.5,1.1-1.1,1.1h-4.6
		c-0.6,0-1.1-0.5-1.1-1.1v-3.2c0-0.6,0.5-1.1,1.1-1.1h4.6c0.6,0,1.1,0.5,1.1,1.1V97.3z M152.4,81.8c0,0.6-0.5,1.1-1.1,1.1h-4.6
		c-0.6,0-1.1-0.5-1.1-1.1v-3.2c0-0.6,0.5-1.1,1.1-1.1h4.6c0.6,0,1.1,0.5,1.1,1.1V81.8z M152.4,74.8c0,0.6-0.5,1.1-1.1,1.1h-4.6
		c-0.6,0-1.1-0.5-1.1-1.1v-3.2c0-0.6,0.5-1.1,1.1-1.1h4.6c0.6,0,1.1,0.5,1.1,1.1V74.8z M160.6,126.9c0,0.6-0.5,1.1-1.1,1.1H155
		c-0.6,0-1.1-0.5-1.1-1.1v-3.2c0-0.6,0.5-1.1,1.1-1.1h4.6c0.6,0,1.1,0.5,1.1,1.1V126.9z M160.6,119.9c0,0.6-0.5,1.1-1.1,1.1H155
		c-0.6,0-1.1-0.5-1.1-1.1v-3.2c0-0.6,0.5-1.1,1.1-1.1h4.6c0.6,0,1.1,0.5,1.1,1.1V119.9z M160.7,104.4c0,0.6-0.5,1.1-1.1,1.1h-4.6
		c-0.6,0-1.1-0.5-1.1-1.1v-3.2c0-0.6,0.5-1.1,1.1-1.1h4.6c0.6,0,1.1,0.5,1.1,1.1V104.4z M160.7,97.3c0,0.6-0.5,1.1-1.1,1.1h-4.6
		c-0.6,0-1.1-0.5-1.1-1.1v-3.2c0-0.6,0.5-1.1,1.1-1.1h4.6c0.6,0,1.1,0.5,1.1,1.1V97.3z M160.7,81.8c0,0.6-0.5,1.1-1.1,1.1h-4.6
		c-0.6,0-1.1-0.5-1.1-1.1v-3.2c0-0.6,0.5-1.1,1.1-1.1h4.6c0.6,0,1.1,0.5,1.1,1.1V81.8z M160.7,74.8c0,0.6-0.5,1.1-1.1,1.1h-4.6
		c-0.6,0-1.1-0.5-1.1-1.1v-3.2c0-0.6,0.5-1.1,1.1-1.1h4.6c0.6,0,1.1,0.5,1.1,1.1V74.8z M166.7,66.7h-3.3l-10.4-7l-10.4,7h-3.3
		c-0.4,0-0.6-0.5-0.3-0.7l13.2-9.6c0.4-0.4,1.1-0.4,1.6,0l13.2,9.6C167.3,66.2,167.1,66.7,166.7,66.7z"/>
</g>
<g id="Credits">
</g>
</svg>
