<?xml version="1.0" encoding="utf-8"?>
<!-- Generator: Adobe Illustrator 20.0.0, SVG Export Plug-In . SVG Version: 6.00 Build 0)  -->
<svg version="1.1" xmlns="http://www.w3.org/2000/svg" xmlns:xlink="http://www.w3.org/1999/xlink" x="0px" y="0px"
	 viewBox="0 0 190 190" style="enable-background:new 0 0 190 190;" xml:space="preserve">
<style type="text/css">
	.st0{fill:#756055;stroke:#010202;stroke-width:0.2684;stroke-miterlimit:10;}
	.st1{fill:#756055;}
	.st2{fill-rule:evenodd;clip-rule:evenodd;fill:#756055;}
</style>
<g id="iconos">
	<g>
		<path class="st1" d="M128.8,37.8h0.8c1.6,0,2.9-1.3,2.9-2.9s-1.3-2.9-2.9-2.9H98.1l-0.3-10.6c0-1.6-1.3-2.9-2.9-2.9
			c-1.6,0-2.9,1.3-2.9,2.9l-0.3,10.6H60.4c-1.6,0-2.9,1.3-2.9,2.9s1.3,2.9,2.9,2.9h0.8L46.9,79.2c0,0,0,9.6,17.3,9.6
			s17.3-9.6,17.3-9.6L67.2,37.8h24.5l-1.5,70.7c-18.3,1.2-18.3,9.5-18.3,9.5h46.2c0,0,0-8.2-18.3-9.5l-1.5-70.7h24.5l-14.3,41.4
			c0,0,0,9.6,17.3,9.6s17.3-9.6,17.3-9.6L128.8,37.8z M62.3,46.6v32.6H51.2L62.3,46.6z M66.1,79.2V46.6l11.1,32.6H66.1z M127.7,46.6
			l11.1,32.6h-11.1V46.6z M123.9,46.6v32.6h-11.1L123.9,46.6z"/>
		<path class="st1" d="M101.4,92.6l0.1,5.1l4.1,2.4c-1.3,0.8-2.7,1.5-4,2.3l0,1.3c1.7-1,3.4-1.9,5.1-2.9l12.3,7.1
			c-1.5,0.9-3,1.7-4.6,2.5c0.4,0.2,0.7,0.5,1.1,0.7c1.6-0.8,3.1-1.6,4.6-2.5l12.3,7.1c-3.3,1.9-6.9,3.8-10.6,4.7
			c-0.7-0.5-1.4-0.9-2.1-1.4c-0.1,0.2-0.2,0.3-0.3,0.4c-0.1,0.1-0.3,0.3-0.5,0.3c0.5,0.3,0.9,0.6,1.4,0.9c-1.3,0.2-2.6,0.4-4,0.3
			c-1.6-0.1-3-0.2-4.3-0.3c-1.2-0.1-2.3-0.2-3.4-0.2c-0.1-0.2-0.3-0.3-0.4-0.5h-1.5c0.1,0.2,0.3,0.3,0.4,0.5c-3.2,0.2-6.2,1.3-10,5
			c-0.8,0.8-1.5,1.5-2.2,2.3c-0.7-0.8-1.4-1.6-2.2-2.3c-3.8-3.8-6.9-4.9-10-5c0.1-0.2,0.3-0.3,0.4-0.5h-1.5
			c-0.1,0.2-0.3,0.3-0.4,0.5c-1.1,0-2.2,0.1-3.4,0.2c-1.3,0.1-2.7,0.2-4.3,0.3c-1.3,0-2.7-0.1-3.9-0.3c0.5-0.3,0.9-0.6,1.4-0.9
			c-0.2-0.1-0.3-0.2-0.5-0.4c-0.1-0.1-0.2-0.3-0.3-0.4c-0.7,0.4-1.4,0.9-2.1,1.4c-3.7-1-7.3-2.8-10.6-4.7l12.3-7.1
			c1.5,0.9,3,1.7,4.6,2.5c0.3-0.2,0.7-0.5,1.1-0.7c-1.5-0.8-3-1.6-4.6-2.5l12.3-7.1c1.7,1,3.4,1.9,5.1,2.9l0-1.3
			c-1.3-0.8-2.7-1.5-4-2.3l4.1-2.4l0.1-5.1l-65,37.5L95,171.4l71.5-41.3L101.4,92.6z M133.6,116.3l12.3,7.1c-3.5,2-7,4-10.6,5.9
			c-1-0.6-2-1.2-2.9-1.9c-1.9-1.3-3.8-2.6-5.7-3.8c-1.2-0.8-2.4-1.6-3.6-2.4C126.9,120,130.4,118.1,133.6,116.3z M112,121.8
			c1.3,0.1,2.8,0.2,4.4,0.3c1.8,0.1,3.5-0.2,5.2-0.6c1.5,1,2.9,2,4.4,3c1.9,1.3,3.8,2.6,5.7,3.9c0.8,0.5,1.6,1,2.4,1.5
			c-0.9,0.5-1.8,0.9-2.7,1.4c-1.8,0.9-3.6,1.7-5.4,2.6c-1.3,0.6-2.7,1.3-4.1,1.9c-2.1-1.9-4.2-4.2-6.6-7.1c-0.7-0.9-1.4-1.8-2.1-2.6
			c-1.2-1.5-2.4-3-3.6-4.4C110.4,121.7,111.2,121.7,112,121.8z M98,126.3c4-3.9,6.8-4.8,10.2-4.8c1.5,1.7,2.9,3.4,4.2,5.1
			c0.7,0.9,1.4,1.8,2.1,2.7c2.3,2.8,4.3,5,6.3,6.9c-2.3,1.1-4.6,2.3-6.8,3.6c-1.9,1.1-3.7,2.3-5.6,3.5c-0.9-0.8-1.7-1.6-2.5-2.5
			c-2.1-2.2-4.1-4.7-5.9-7.1c-1.4-1.7-2.8-3.5-4.3-5.2C96.5,127.9,97.2,127.1,98,126.3z M99.1,134.6c1.9,2.4,3.9,4.9,6,7.2
			c0.8,0.8,1.6,1.6,2.4,2.3c-1.3,0.9-2.7,1.8-4,2.7c-1.9,1.3-3.8,2.6-5.7,3.9c-0.9,0.6-1.9,1.2-2.9,1.8c-1-0.6-1.9-1.2-2.9-1.8
			c-1.9-1.3-3.8-2.6-5.7-3.9c-1.3-0.9-2.6-1.8-4-2.7c0.8-0.7,1.6-1.5,2.4-2.3c2.2-2.3,4.1-4.8,6-7.2c1.3-1.7,2.7-3.4,4.1-5.1
			C96.4,131.2,97.8,132.9,99.1,134.6z M81.8,121.6c3.4,0,6.2,0.8,10.2,4.8c0.8,0.8,1.5,1.6,2.3,2.4c-1.5,1.7-2.9,3.5-4.3,5.2
			c-1.9,2.4-3.8,4.8-5.9,7.1c-0.8,0.9-1.7,1.7-2.5,2.5c-1.8-1.2-3.7-2.4-5.6-3.5c-2.2-1.3-4.5-2.5-6.8-3.6c2-1.9,4.1-4.1,6.4-7
			c0.7-0.9,1.4-1.7,2.1-2.6C78.9,125,80.3,123.3,81.8,121.6z M68.3,121.5c1.7,0.4,3.5,0.6,5.3,0.6c1.6-0.1,3.1-0.2,4.4-0.3
			c0.8-0.1,1.6-0.1,2.3-0.2c-1.2,1.5-2.4,3-3.6,4.4c-0.7,0.9-1.4,1.7-2.1,2.6c-2.4,2.9-4.5,5.2-6.6,7.1c-1.4-0.7-2.7-1.3-4.1-2
			c-1.8-0.8-3.6-1.7-5.4-2.6c-0.9-0.5-1.8-0.9-2.7-1.4c0.8-0.5,1.6-1,2.4-1.5c1.9-1.3,3.8-2.6,5.7-3.9
			C65.4,123.5,66.9,122.5,68.3,121.5z M56.4,116.3c3.2,1.8,6.7,3.8,10.5,4.9c-1.2,0.8-2.4,1.6-3.6,2.4c-1.9,1.3-3.8,2.6-5.7,3.8
			c-1,0.6-1.9,1.2-2.9,1.9c-3.6-1.9-7.1-3.9-10.6-5.9L56.4,116.3z M32.3,130.2L43,124c3.5,2,7,4,10.7,6c-3.6,2.2-7.2,4.4-10.7,6.3
			L32.3,130.2z M44.1,136.9c3.4-2,7.1-4.1,10.7-6.4c1.1,0.6,2.2,1.1,3.3,1.7c1.8,0.9,3.6,1.7,5.4,2.6c1.2,0.6,2.4,1.2,3.7,1.8
			c-3.1,2.8-6.4,4.9-10.8,7.5L44.1,136.9z M57.5,144.7c4.3-2.5,7.5-4.7,10.7-7.6c2.4,1.2,4.8,2.4,7.1,3.8c1.8,1.1,3.5,2.2,5.3,3.3
			c-3.5,3-7.3,5.5-10.8,7.6L57.5,144.7z M70.9,152.4c3.5-2.1,7.2-4.5,10.7-7.6c1.4,0.9,2.8,1.9,4.2,2.8c1.9,1.3,3.8,2.6,5.7,3.9
			c0.8,0.5,1.6,1,2.5,1.6c-3.6,2.3-7.3,4.4-10.7,6.4L70.9,152.4z M95,166.3l-10.7-6.2c3.4-2,7.1-4.1,10.7-6.4
			c3.6,2.3,7.2,4.4,10.7,6.4L95,166.3z M106.8,159.5c-3.4-2-7.1-4.1-10.7-6.4c0.8-0.5,1.6-1,2.5-1.6c1.9-1.3,3.8-2.6,5.7-3.9
			c1.4-0.9,2.8-1.9,4.2-2.8c3.5,3,7.2,5.5,10.7,7.6L106.8,159.5z M120.2,151.8c-3.5-2.1-7.3-4.5-10.8-7.6c1.7-1.1,3.5-2.3,5.3-3.3
			c2.3-1.4,4.7-2.6,7.1-3.8c3.2,2.9,6.5,5,10.7,7.6L120.2,151.8z M133.6,144c-4.3-2.5-7.6-4.7-10.8-7.5c1.2-0.6,2.4-1.2,3.7-1.7
			c1.8-0.9,3.6-1.7,5.4-2.6c1.1-0.5,2.2-1.1,3.3-1.7c3.6,2.3,7.2,4.4,10.7,6.4L133.6,144z M136.3,130c3.6-1.9,7.2-4,10.7-6l10.7,6.2
			l-10.7,6.2C143.6,134.3,139.9,132.2,136.3,130z"/>
	</g>
</g>
<g id="Credits">
</g>
</svg>
