<?xml version="1.0" encoding="utf-8"?>
<!-- Generator: Adobe Illustrator 20.0.0, SVG Export Plug-In . SVG Version: 6.00 Build 0)  -->
<svg version="1.1" xmlns="http://www.w3.org/2000/svg" xmlns:xlink="http://www.w3.org/1999/xlink" x="0px" y="0px"
	 viewBox="0 0 190 190" style="enable-background:new 0 0 190 190;" xml:space="preserve">
<style type="text/css">
	.st0{fill:#756055;stroke:#010202;stroke-width:0.2684;stroke-miterlimit:10;}
	.st1{fill:#756055;}
	.st2{fill-rule:evenodd;clip-rule:evenodd;fill:#756055;}
</style>
<g id="iconos">
	<path class="st1" d="M130.8,32l-19.2,19.4c-6.1-4.4-13.5-7.1-21.5-7.4v0.2c-0.5,0-1,0-1.5,0c-21,0-38.2,16.6-39.1,37.3h-0.3
		c0,0.7-0.1,1.5-0.1,2.2c0,20,14.6,36.5,33.6,39.3v14.3H67.4v12.3h15.3v13.9h11.9v-13.9h15.2v-12.3H94.6v-14.3
		c18.9-2.9,33.4-19.4,33.4-39.3c0-9.2-3.1-17.7-8.4-24.5l18.9-19.1v18h10.3V32V21.6h-36.2V32H130.8z M88.6,112.7
		C72.8,112.7,60,99.8,60,84c0-15.9,12.8-28.7,28.5-28.7c15.8,0,28.5,12.9,28.5,28.7C117.1,99.8,104.3,112.7,88.6,112.7z"/>
	<path class="st2" d="M50.7,83.9c0,20.9,17,37.9,37.9,37.9s37.9-17,37.9-37.9c0-20.9-17-37.9-37.9-37.9S50.7,63,50.7,83.9z
		 M58.8,83.9c0-1.9,0.2-3.8,0.5-5.6H67c-0.1,1.6-0.2,3.2-0.2,4.8c0,1.6,0.1,3.2,0.2,4.8h-8C58.8,86.7,58.8,85.3,58.8,83.9z
		 M62.1,70.2c2.4-4.6,5.9-8.4,10.1-11.2c-1.7,3.6-3,7.3-3.9,11.2H62.1z M84.3,54.4l0.2,0v15.8h-7.9C78.2,64.5,80.8,59.1,84.3,54.4z
		 M92.6,54.4l0.2,0c3.5,4.7,6.1,10,7.7,15.8h-7.9V54.4z M104.9,59c4.3,2.8,7.8,6.7,10.1,11.2h-6.2C108,66.3,106.6,62.6,104.9,59z
		 M117.9,78.3c0.4,1.8,0.5,3.7,0.5,5.6c0,1.4-0.1,2.7-0.3,4h-8c0.1-1.6,0.2-3.2,0.2-4.8c0-1.6-0.1-3.2-0.2-4.8H117.9z M115.9,96
		c-2.5,5.7-6.8,10.4-12.1,13.6c2.3-4.2,4-8.8,5.1-13.6H115.9z M73.4,109.6c-5.3-3.1-9.6-7.9-12.1-13.6h7
		C69.4,100.8,71.2,105.4,73.4,109.6z M75.1,78.3h9.4V88h-9.4c-0.2-1.6-0.2-3.2-0.2-4.8C74.9,81.5,75,79.9,75.1,78.3z M92.6,78.3h9.4
		c0.2,1.6,0.2,3.2,0.2,4.8c0,1.6-0.1,3.2-0.2,4.8h-9.4V78.3z M76.6,96h7.9v16.1C81,107.4,78.3,101.9,76.6,96z M92.6,96h7.9
		c-1.6,5.9-4.4,11.3-7.9,16.1V96z"/>
</g>
<g id="Credits">
</g>
</svg>
