<?xml version="1.0" encoding="utf-8"?>
<!-- Generator: Adobe Illustrator 20.0.0, SVG Export Plug-In . SVG Version: 6.00 Build 0)  -->
<svg version="1.1" xmlns="http://www.w3.org/2000/svg" xmlns:xlink="http://www.w3.org/1999/xlink" x="0px" y="0px"
	 viewBox="0 0 190 190" style="enable-background:new 0 0 190 190;" xml:space="preserve">
<style type="text/css">
	.st0{fill:#756055;stroke:#010202;stroke-width:0.2684;stroke-miterlimit:10;}
	.st1{fill:#756055;}
	.st2{fill-rule:evenodd;clip-rule:evenodd;fill:#756055;}
</style>
<g id="iconos">
	<g>
		<path class="st1" d="M52.4,128.8V125c-3.1,3-10.6,4.5-18,4.5c-7.4,0-14.9-1.6-18-4.5v3.8c0,3.4,8.1,6.2,18,6.2
			S52.4,132.2,52.4,128.8z"/>
		<path class="st1" d="M34.3,128.1c9.1,0,16.6-2.3,17.9-5.3c0.1-0.3,0.2-0.6,0.2-0.9v-0.3v-1.1v-2.5c-0.4,0.4-1,0.8-1.7,1.3
			c-0.3,0.2-0.5,0.3-0.8,0.4c-0.3,0.2-0.6,0.3-0.8,0.4c-3.8,1.7-9.3,2.5-14.9,2.5c-5.5,0-11.1-0.8-14.9-2.5
			c-0.3-0.2-0.6-0.3-0.8-0.4c-0.3-0.2-0.5-0.3-0.8-0.4c-0.7-0.4-1.2-0.8-1.7-1.3v2.5v1.1v0.3c0,0.3,0.1,0.6,0.2,0.9
			C17.7,125.9,25.2,128.1,34.3,128.1z"/>
		<path class="st1" d="M52.5,111.2c-0.4,0.4-1,0.8-1.7,1.3c-0.3,0.2-0.5,0.3-0.8,0.4c-0.3,0.2-0.6,0.3-0.8,0.4
			c-3.8,1.7-9.3,2.5-14.9,2.5c-5.5,0-11.1-0.8-14.9-2.5c-0.3-0.2-0.6-0.3-0.8-0.4c-0.3-0.1-0.4-0.3-0.7-0.3
			c-0.7-0.4-1.2-0.8-1.7-1.3v2.5v1.1v0.2c0,0.3,0.1,0.6,0.2,0.9c0.4,0.9,1.5,1.8,3.1,2.6c0.3,0.2,0.6,0.3,0.9,0.4
			c0.3,0.2,0.7,0.3,1.1,0.4c3.3,1.2,7.8,1.8,12.9,1.8c5.1,0,9.6-0.8,12.9-1.8c0.3-0.2,0.8-0.3,1.1-0.4c0.3-0.2,0.6-0.3,0.9-0.4
			c1.6-0.8,2.6-1.7,3-2.6c0.1-0.3,0.2-0.6,0.2-0.9v-0.3v-1.1V111.2z"/>
		<path class="st1" d="M19.6,111.7c0.3,0.2,0.6,0.3,0.9,0.4c0.3,0.2,0.7,0.3,1.1,0.4c3.3,1.2,7.8,1.8,12.9,1.8
			c5.1,0,9.6-0.8,12.9-1.8c0.3-0.2,0.8-0.3,1.1-0.4c0.3-0.2,0.6-0.3,0.9-0.4c1.6-0.8,2.6-1.7,3-2.6c0.1-0.3,0.2-0.6,0.2-0.9V108
			v-1.1v-2.5c-0.4,0.4-1,0.8-1.7,1.3c-0.3,0.2-0.5,0.3-0.8,0.4s-0.6,0.3-0.8,0.4c-3.8,1.7-9.3,2.5-14.9,2.5
			c-5.5,0-11.1-0.8-14.9-2.5c-0.3-0.2-0.6-0.3-0.8-0.4c-0.3-0.2-0.5-0.3-0.8-0.4c-0.7-0.4-1.2-0.8-1.7-1.3v2.5v1.1v0.3
			c0,0.3,0.1,0.6,0.2,0.9C16.9,110.1,18,111,19.6,111.7z"/>
		<path class="st1" d="M19.6,104.9c0.3,0.2,0.6,0.3,0.9,0.4c0.3,0.2,0.7,0.3,1.1,0.4c3.3,1.2,7.8,1.8,12.9,1.8
			c5.1,0,9.6-0.8,12.9-1.8c0.3-0.2,0.8-0.3,1.1-0.4c0.3-0.2,0.6-0.3,0.9-0.4c1.6-0.8,2.6-1.7,3-2.6c0.1-0.3,0.2-0.6,0.2-0.9v-0.3
			v-1.1v-2.5c-0.4,0.4-1,0.8-1.7,1.3c-0.3,0.2-0.5,0.3-0.8,0.4s-0.6,0.3-0.8,0.4c-3.8,1.7-9.3,2.5-14.9,2.5
			c-5.5,0-11.1-0.8-14.9-2.5c-0.3-0.2-0.6-0.3-0.8-0.4c-0.3-0.2-0.5-0.3-0.8-0.4c-0.7-0.4-1.2-0.8-1.7-1.3v2.5v1.1v0.3
			c0,0.3,0.1,0.6,0.2,0.9C16.9,103.2,18,104.2,19.6,104.9z"/>
		<path class="st1" d="M89.1,126.7c-0.3,0.2-0.6,0.3-0.8,0.4c-3.8,1.7-9.3,2.5-14.9,2.5c-5.5,0-11.1-0.8-14.9-2.5
			c-0.3-0.2-0.6-0.3-0.8-0.4c-0.3-0.2-0.5-0.3-0.8-0.4c-0.7-0.4-1.2-0.8-1.7-1.3v2.5v1.1v0.3c0,0.3,0.1,0.6,0.2,0.9
			c0.4,1,1.5,1.8,3,2.6c0.3,0.2,0.6,0.3,0.9,0.4c0.3,0.2,0.7,0.3,1.1,0.4c3.3,1.2,7.8,1.8,12.9,1.8c5.1,0,9.6-0.8,12.9-1.8
			c0.3-0.2,0.8-0.3,1.1-0.4c0.3-0.2,0.6-0.3,0.9-0.4c1.6-0.8,2.6-1.7,3-2.6c0.1-0.3,0.2-0.6,0.2-0.9v-0.3v-1.1V125
			c-0.4,0.4-1,0.8-1.7,1.3C89.5,126.4,89.3,126.5,89.1,126.7z"/>
		<path class="st1" d="M89.1,119.8c-0.3,0.2-0.6,0.3-0.8,0.4c-3.8,1.7-9.3,2.5-14.9,2.5c-5.5,0-11.1-0.8-14.9-2.5
			c-0.3-0.2-0.6-0.3-0.8-0.4c-0.3-0.2-0.5-0.3-0.8-0.4c-0.7-0.4-1.2-0.8-1.7-1.3v2.5v1.1v0.3c0,0.3,0.1,0.6,0.2,0.9
			c0.4,1,1.5,1.8,3,2.6c0.3,0.2,0.6,0.3,0.9,0.4c0.3,0.2,0.7,0.3,1.1,0.4c3.3,1.2,7.8,1.8,12.9,1.8c5.1,0,9.6-0.8,12.9-1.8
			c0.3-0.2,0.8-0.3,1.1-0.4c0.3-0.2,0.6-0.3,0.9-0.4c1.6-0.8,2.6-1.7,3-2.6c0.1-0.3,0.2-0.6,0.2-0.9v-0.3v-1.1v-2.5
			c-0.4,0.4-1,0.8-1.7,1.3C89.5,119.6,89.3,119.7,89.1,119.8z"/>
		<path class="st1" d="M16.5,89.7c0.4,1,1.5,1.8,3,2.6c0.3,0.2,0.6,0.3,0.9,0.4c0.3,0.2,0.7,0.3,1.1,0.4c3.3,1.2,7.8,1.8,12.9,1.8
			c5.1,0,9.6-0.8,12.9-1.8c0.3-0.2,0.8-0.3,1.1-0.4c0.3-0.2,0.6-0.3,0.9-0.4c1.6-0.8,2.6-1.7,3-2.6c0.1-0.3,0.2-0.6,0.2-0.9l0,0
			c-0.4-3.3-8.3-5.9-18-5.9c-9.7,0-17.7,2.6-18.1,5.9c0,0,0,0,0,0C16.3,89.2,16.4,89.4,16.5,89.7z"/>
		<path class="st1" d="M19.6,98.1c0.3,0.2,0.6,0.3,0.9,0.4c0.3,0.2,0.7,0.3,1.1,0.4c3.3,1.2,7.8,1.8,12.9,1.8
			c5.1,0,9.6-0.8,12.9-1.8c0.3-0.2,0.8-0.3,1.1-0.4s0.6-0.3,0.9-0.4c1.6-0.8,2.6-1.7,3-2.6c0.1-0.3,0.2-0.6,0.2-0.9v-3.7
			c-0.1,0.1-0.2,0.1-0.2,0.2c-0.4,0.9-1.4,1.8-3,2.6c-0.3,0.2-0.6,0.3-0.9,0.4c-0.3,0.2-0.8,0.3-1.1,0.4c-3.3,1.1-7.8,1.8-12.9,1.8
			c-5,0-9.6-0.7-12.9-1.8c-0.4-0.2-0.8-0.3-1.1-0.4c-0.3-0.2-0.7-0.3-0.9-0.4c-1.5-0.8-2.6-1.6-3-2.6c-0.1-0.3-0.2,0.4-0.2,0.1v-0.3
			l0,0c0,1.1,0,2.4,0,2.4v1.1v0.3c0,0.3,0.1,0.6,0.2,0.9C16.9,96.4,18,97.3,19.6,98.1z"/>
		<path class="st1" d="M55.5,110.2c0.4,1,1.5,1.8,3,2.6c0.3,0.2,0.6,0.3,0.9,0.4c0.3,0.2,0.7,0.3,1.1,0.4c3.3,1.2,7.8,1.8,12.9,1.8
			c5.1,0,9.6-0.8,12.9-1.8c0.3-0.2,0.8-0.3,1.1-0.4c0.3-0.2,0.6-0.3,0.9-0.4c1.6-0.8,2.6-1.7,3-2.6c0.1-0.3,0.2-0.6,0.2-0.9l0,0
			c-0.4-3.3-8.3-5.9-18-5.9c-9.7,0-17.7,2.6-18.1,5.9c0,0,0,0,0,0C55.4,109.6,55.5,109.9,55.5,110.2z"/>
		<path class="st1" d="M91.3,111.8c-0.4,0.9-1.4,1.8-3,2.6c-0.3,0.2-0.6,0.3-0.9,0.4c-0.3,0.2-0.8,0.3-1.1,0.4
			c-3.3,1.1-7.8,1.8-12.9,1.8c-5,0-9.6-0.7-12.9-1.8c-0.4-0.2-0.8-0.3-1.1-0.4c-0.3-0.2-0.7-0.3-0.9-0.4c-1.5-0.8-2.6-1.6-3-2.6
			c-0.1-0.3-0.2,0.4-0.2,0.1v-0.3l0,0c0,1.1,0,2.4,0,2.4v1.1v0.3c0,0.3,0.1,0.6,0.2,0.9c0.4,0.9,1.5,1.8,3.1,2.6
			c0.3,0.2,0.6,0.3,0.9,0.4c0.3,0.2,0.7,0.3,1.1,0.4c3.3,1.2,7.8,1.8,12.9,1.8c5.1,0,9.6-0.8,12.9-1.8c0.3-0.2,0.8-0.3,1.1-0.4
			s0.6-0.3,0.9-0.4c1.6-0.8,2.6-1.7,3-2.6c0.1-0.3,0.2-0.6,0.2-0.9v-3.7C91.4,111.6,91.3,111.7,91.3,111.8z"/>
		<path class="st1" d="M35.8,141.1C35.8,141.1,35.8,141,35.8,141.1c0,0.3,0.1,0.6,0.2,0.9c0.4,1,1.5,1.8,3,2.6
			c0.3,0.2,0.6,0.3,0.9,0.4c0.3,0.2,0.7,0.3,1.1,0.4c3.3,1.2,7.8,1.8,12.9,1.8c5.1,0,9.6-0.8,12.9-1.8c0.3-0.2,0.8-0.3,1.1-0.4
			c0.3-0.2,0.6-0.3,0.9-0.4c1.6-0.8,2.6-1.7,3-2.6c0.1-0.3,0.2-0.6,0.2-0.9l0,0c-0.4-3.3-8.3-5.9-18-5.9
			C44.2,135.1,36.2,137.8,35.8,141.1z"/>
		<path class="st1" d="M71.7,143.6c-0.4,0.9-1.4,1.8-3,2.6c-0.3,0.2-0.6,0.3-0.9,0.4c-0.3,0.2-0.8,0.3-1.1,0.4
			c-3.3,1.1-7.8,1.8-12.9,1.8c-5,0-9.6-0.7-12.9-1.8c-0.4-0.2-0.8-0.3-1.1-0.4c-0.3-0.2-0.7-0.3-0.9-0.4c-1.5-0.8-2.6-1.6-3-2.6
			c-0.1-0.3-0.2,0.4-0.2,0.1v-0.3l0,0c0,1.1,0,2.4,0,2.4v1.1v0.3c0,0.3,0.1,0.6,0.2,0.9c0.4,0.9,1.5,1.8,3.1,2.6
			c0.3,0.2,0.6,0.3,0.9,0.4c0.3,0.2,0.7,0.3,1.1,0.4c3.3,1.2,7.8,1.8,12.9,1.8c5.1,0,9.6-0.8,12.9-1.8c0.3-0.2,0.8-0.3,1.1-0.4
			s0.6-0.3,0.9-0.4c1.6-0.8,2.6-1.7,3-2.6c0.1-0.3,0.2-0.6,0.2-0.9v-3.7C71.8,143.5,71.8,143.5,71.7,143.6z"/>
	</g>
	<path class="st1" d="M138.3,109.3h-6.4V81.2h2.5l-1.7-1c-2.6-1.5-3.6-4.9-2.1-7.5c1-1.7,2.8-2.8,4.8-2.8c0.9,0,1.9,0.2,2.7,0.7
		l5.6,3.1l0.2-2.5l-42.9-27.1L58,71.3l0.6,9.9h11.3v19.9c1.2-0.1,2.4-0.1,3.5-0.1c2,0,4.1,0.1,6,0.3V81.2h6.7v21.4
		c4.3,1.3,7.3,3.5,7.3,6.5v5.1c0,0.5-0.1,1-0.3,1.5c0,0.1,0,0.1-0.1,0.2c0,0,0,0.1-0.1,0.1c0.2,0.3,0.3,0.7,0.3,1.1v3.8
		c0,0.5-0.1,1-0.3,1.6c0,0.1,0,0.1-0.1,0.2c0,0,0,0.1,0,0.1c0.2,0.3,0.4,0.7,0.4,1.2v3.8c0,0.2,0,0.4,0,0.6h7.6h45v-12.5h-7.6V109.3
		z M106.1,109.3h-5.2h-5.2V81.2h5.2h5.2V109.3z M106.6,73.6c-0.9,1.7-2.9,2.3-4.5,1.5c-1.7-0.9-2.3-2.9-1.4-4.5l-4.2-3.8
		c-1.1,0.7-2.4,0.7-3.5,0.1l-7.1,7.1c0.6,1,0.6,2.3,0,3.4c-0.9,1.6-3,2.2-4.6,1.2c-1.6-0.9-2.2-3-1.2-4.6c0.9-1.6,3-2.2,4.6-1.2
		l7.1-7.1c-0.6-1-0.6-2.2-0.1-3.2c0.8-1.6,2.9-2.3,4.5-1.4c1.6,0.9,2.3,2.9,1.4,4.5l4.2,3.8c1.1-0.7,2.6-0.7,3.7,0l8.2-7.2
		c-0.5-1.1-0.4-2.4,0.2-3.4c1-1.6,3.1-2,4.7-0.9c1.5,1,2,3.1,0.9,4.7c-1,1.6-3.1,2-4.7,0.9l-8.2,7.2
		C107.1,71.6,107.1,72.7,106.6,73.6z M122.4,109.3h-6.7V81.2h6.7V109.3z"/>
	<g>
		<path class="st1" d="M159.4,79c3.5,0,6.3-2.8,6.3-6.3c0-3.5-2.8-6.3-6.3-6.3c-3.5,0-6.3,2.8-6.3,6.3C153.1,76.2,155.9,79,159.4,79
			z"/>
		<path class="st1" d="M167.1,81.4h-4.9l-2.8,4l-2.7-4H153l-15.9-9c-1.7-1-3.8-0.4-4.8,1.3c-1,1.7-0.4,3.8,1.3,4.8l18,10.2v17.2
			v19.4c0,2,1.6,3.7,3.7,3.7c2,0,3.7-1.6,3.7-3.7c0,2,1.6,3.7,3.7,3.7c2,0,3.7-1.6,3.7-3.7v-18.8c2,0,3.7-1.6,3.7-3.7V84.3
			C170,82.7,168.7,81.4,167.1,81.4z"/>
	</g>
</g>
<g id="Credits">
</g>
</svg>
