<?xml version="1.0" encoding="utf-8"?>
<!-- Generator: Adobe Illustrator 20.0.0, SVG Export Plug-In . SVG Version: 6.00 Build 0)  -->
<svg version="1.1" xmlns="http://www.w3.org/2000/svg" xmlns:xlink="http://www.w3.org/1999/xlink" x="0px" y="0px"
	 viewBox="0 0 190 190" style="enable-background:new 0 0 190 190;" xml:space="preserve">
<style type="text/css">
	.st0{fill:#756055;stroke:#010202;stroke-width:0.2684;stroke-miterlimit:10;}
	.st1{fill:#756055;}
	.st2{fill-rule:evenodd;clip-rule:evenodd;fill:#756055;}
</style>
<g id="iconos">
	<g>
		<path class="st1" d="M114.9,120.5c0,4.3-8.7,7.8-19.4,7.8c-10.7,0-19.4-3.5-19.4-7.8s8.7-7.8,19.4-7.8
			C106.2,112.7,114.9,116.2,114.9,120.5z M95.5,132.1c-10.7,0-19.4-3.5-19.4-7.8v7.8c0,4.3,8.7,7.8,19.4,7.8
			c10.7,0,19.4-3.5,19.4-7.8v-7.8C114.9,128.6,106.2,132.1,95.5,132.1z M95.5,143.8c-10.7,0-19.4-3.5-19.4-7.8v7.8
			c0,4.3,8.7,7.8,19.4,7.8c10.7,0,19.4-3.5,19.4-7.8V136C114.9,140.3,106.2,143.8,95.5,143.8z M95.5,155.5
			c-10.7,0-19.4-3.5-19.4-7.8v7.8c0,4.3,8.7,7.8,19.4,7.8c10.7,0,19.4-3.5,19.4-7.8v-7.8C114.9,152,106.2,155.5,95.5,155.5z"/>
		<g>
			<path class="st1" d="M95.9,42.9c0,0,2.5,24.8,28.3,26c0.6,0.1,1.3,0.2,1.9,0.2c-10.8-8.2-16.5-15.5-18.3-17.6
				c2.9,1.9,12.5,10.3,22.2,14.1c-0.8-4.8-2.4-9.1-2.4-9.1C122.2,45.4,114.6,39.7,95.9,42.9z"/>
			<path class="st1" d="M139.2,73.1c3.5-0.2,5.8-0.8,5.8-0.8c21.8-7.2,35.9-24.5,28.4-52.5c0,0-35.3,2.5-38.6,38.5
				c0,0-0.5,4.3,0.1,8.9c14.7-6.2,21.8-20.1,25.6-26C159.7,45.9,154.2,60.7,139.2,73.1z"/>
		</g>
		<g>
			<path class="st1" d="M122.7,143.8c-1.3,0-2.6-0.1-3.9-0.2v7.8c1.3,0.1,2.6,0.2,3.9,0.2c10.7,0,19.4-3.5,19.4-7.8V136
				C142.1,140.3,133.4,143.8,122.7,143.8z"/>
			<path class="st1" d="M122.7,104.9c10.7,0,19.4-3.5,19.4-7.8c0-2.5-2.9-4.6-7.3-6.1c-1.9,3.8-4.8,7.3-9.5,9.7
				c-0.8,0.4-1.7,0.7-2.7,0.7c-2.2,0-4.1-1.2-5.1-3.1c-1.5-2.8-0.4-6.3,2.4-7.8c0.7-0.4,1.3-0.8,1.8-1.2
				c-10.3,0.2-18.6,3.6-18.6,7.8C103.3,101.4,112,104.9,122.7,104.9z"/>
			<path class="st1" d="M122.7,108.8c-10.7,0-19.4-3.5-19.4-7.8v7.8c0,0.2,0,0.5,0.1,0.7c6.4,1.1,11.4,3.6,13.9,6.8
				c1.7,0.2,3.6,0.3,5.5,0.3c10.7,0,19.4-3.5,19.4-7.8V101C142.1,105.3,133.4,108.8,122.7,108.8z"/>
			<path class="st1" d="M122.7,120.5c-1.3,0-2.6-0.1-3.9-0.2c0,0.1,0,0.1,0,0.2v7.6c1.3,0.1,2.6,0.2,3.9,0.2
				c10.7,0,19.4-3.5,19.4-7.8v-7.8C142.1,117,133.4,120.5,122.7,120.5z"/>
			<path class="st1" d="M122.7,132.1c-1.3,0-2.6-0.1-3.9-0.2v7.8c1.3,0.1,2.6,0.2,3.9,0.2c10.7,0,19.4-3.5,19.4-7.8v-7.8
				C142.1,128.6,133.4,132.1,122.7,132.1z"/>
		</g>
		<path class="st1" d="M122.7,99.4c-1.3,0-2.6-0.7-3.2-2c-0.9-1.8-0.2-4,1.5-4.9c9.4-4.9,7.3-18.9,7.3-19c-0.3-2,1.1-3.9,3.1-4.2
			c2-0.3,3.9,1.1,4.2,3.1c0.1,0.8,2.8,19.3-11.1,26.6C123.9,99.2,123.3,99.4,122.7,99.4z"/>
		<path class="st1" d="M53.7,71.1c0.8,0.8,1.5,1.7,2.2,2.9c0.2,0,0.7-0.1,1.3-0.2c0.6-0.1,1.3-0.2,2-0.2c0.7,0,1.3-0.1,1.9-0.1
			c0.6,0,0.9,0.1,0.9,0.3l1.6,6.2c0.1,0.2-0.2,0.5-0.6,0.8c-0.5,0.3-1,0.6-1.7,0.9c-0.6,0.3-1.3,0.5-1.9,0.8c-0.6,0.2-1,0.4-1.2,0.5
			c-0.1,1.1-0.2,2.2-0.5,3.4c0.7,0.6,1.4,1.1,2.1,1.7c0.7,0.6,1.4,1.1,2.2,1.6l0.2,0.3c0,0.1-0.1,0.6-0.4,1.2
			c-0.3,0.7-0.7,1.4-1.2,2.2c-0.5,0.8-0.9,1.5-1.3,2.1c-0.4,0.6-0.7,0.9-0.8,1c0,0-0.3-0.1-0.8-0.3c-0.5-0.2-1.1-0.4-1.7-0.7
			c-0.6-0.3-1.2-0.5-1.8-0.8c-0.5-0.2-0.9-0.4-1.1-0.5c-0.9,0.8-1.8,1.5-2.7,2.1c0.1,0.2,0.1,0.7,0.2,1.3c0.1,0.7,0.2,1.3,0.2,2
			c0.1,0.7,0.1,1.4,0,1.9c0,0.6-0.2,0.9-0.3,0.9l-6.2,1.6c-0.2,0-0.4-0.2-0.7-0.6c-0.3-0.5-0.6-1-0.9-1.7c-0.3-0.7-0.5-1.3-0.8-1.9
			c-0.2-0.6-0.4-1-0.4-1.3c-1.1,0-2.3-0.2-3.4-0.5c-0.6,0.7-1.2,1.5-1.7,2.2c-0.6,0.7-1.1,1.5-1.6,2.2l-0.3,0.2
			c-0.1,0-0.5-0.1-1.1-0.5c-0.7-0.3-1.4-0.7-2.1-1.2c-0.8-0.5-1.4-0.9-2.1-1.3c-0.6-0.4-1-0.7-1-0.9c0,0,0.1-0.3,0.3-0.8
			c0.2-0.5,0.4-1.1,0.7-1.7c0.3-0.6,0.5-1.2,0.7-1.7c0.2-0.5,0.4-0.9,0.4-1.1c-0.8-0.9-1.5-1.8-2.2-2.9c-0.2,0-0.7,0.1-1.3,0.2
			c-0.6,0.1-1.3,0.2-2,0.3c-0.7,0.1-1.3,0.1-1.9,0.1c-0.6,0-0.9-0.1-0.9-0.3L20,84.5c0-0.2,0.2-0.4,0.6-0.7c0.5-0.3,1-0.6,1.7-0.9
			c0.7-0.3,1.3-0.5,1.9-0.8c0.6-0.2,1-0.4,1.3-0.4c0-1.2,0.1-2.3,0.5-3.4c-0.7-0.6-1.4-1.2-2.1-1.7c-0.7-0.6-1.4-1.1-2.2-1.7
			l-0.2-0.3c0-0.1,0.1-0.5,0.4-1.2c0.3-0.7,0.7-1.4,1.2-2.2c0.5-0.8,0.9-1.5,1.3-2.1c0.4-0.6,0.7-0.9,0.8-1c0,0,0.3,0.1,0.8,0.3
			c0.5,0.2,1.1,0.4,1.7,0.7c0.6,0.3,1.2,0.5,1.8,0.8c0.6,0.3,0.9,0.4,1,0.5c0.8-0.8,1.8-1.5,2.8-2.1c0-0.2-0.1-0.6-0.2-1.3
			c-0.1-0.7-0.2-1.4-0.3-2.1c-0.1-0.7-0.1-1.3-0.1-1.9c0-0.6,0.1-0.9,0.4-1l6.2-1.6c0.2,0,0.4,0.2,0.8,0.7c0.3,0.5,0.6,1.1,0.9,1.7
			c0.3,0.6,0.5,1.3,0.8,1.9c0.2,0.6,0.4,1.1,0.5,1.2c1.1,0,2.2,0.2,3.3,0.4c0.6-0.7,1.2-1.4,1.8-2.1c0.6-0.7,1.2-1.4,1.7-2.2
			l0.2-0.2c0.1,0,0.5,0.1,1.2,0.5c0.7,0.4,1.4,0.8,2.2,1.2c0.8,0.4,1.5,0.9,2.1,1.3c0.6,0.4,1,0.7,1,0.8c0,0.1-0.1,0.4-0.3,0.9
			c-0.2,0.5-0.4,1.1-0.7,1.7c-0.3,0.6-0.5,1.2-0.7,1.7C53.9,70.6,53.7,70.9,53.7,71.1L53.7,71.1z M43.5,88.6
			c0.9-0.2,1.6-0.6,2.3-1.1c0.7-0.5,1.2-1.1,1.7-1.9c0.4-0.7,0.7-1.5,0.8-2.4c0.1-0.9,0.1-1.7-0.1-2.6c-0.2-0.9-0.6-1.6-1.1-2.3
			c-0.5-0.7-1.2-1.3-1.9-1.7c-0.7-0.4-1.5-0.7-2.4-0.8c-0.9-0.1-1.7-0.1-2.6,0.1c-1.8,0.5-3.1,1.5-4,3c-0.9,1.5-1.1,3.2-0.7,5
			c0.2,0.9,0.6,1.6,1.1,2.3c0.5,0.7,1.2,1.2,1.9,1.7c0.7,0.4,1.5,0.7,2.4,0.8C41.8,88.8,42.6,88.8,43.5,88.6z M89.5,91.5
			c0,0.9,0,1.8-0.2,2.7c0.1,0.1,0.3,0.3,0.6,0.5c0.3,0.2,0.6,0.5,0.9,0.8c0.3,0.3,0.6,0.6,0.8,0.8c0.2,0.3,0.4,0.4,0.4,0.6
			c0,0.1-0.1,0.4-0.4,1c-0.3,0.6-0.7,1.2-1.1,1.8c-0.4,0.6-0.9,1.3-1.3,1.8c-0.4,0.6-0.7,1-0.8,1.2l-0.2,0.2c-0.1,0-0.3,0-0.7-0.1
			c-0.3-0.1-0.7-0.3-1.1-0.5c-0.4-0.2-0.7-0.3-1.1-0.5c-0.4-0.2-0.6-0.3-0.7-0.4c-0.8,0.5-1.6,1-2.5,1.4c0,0.1-0.1,0.4-0.1,0.8
			c-0.1,0.4-0.2,0.8-0.3,1.2c-0.1,0.4-0.2,0.8-0.3,1.1c-0.1,0.3-0.2,0.5-0.4,0.6c-0.1,0-0.6,0.1-1.3,0.1c-0.7,0-1.5,0-2.3-0.1
			c-0.8-0.1-1.6-0.1-2.3-0.3c-0.7-0.1-1.1-0.3-1.1-0.5c-0.1-0.5-0.2-1.1-0.3-1.7c0-0.6-0.1-1.2-0.1-1.7c-0.4-0.2-0.9-0.4-1.2-0.7
			c-0.4-0.3-0.7-0.5-1.1-0.9c-0.5,0.2-1,0.4-1.6,0.5c-0.5,0.2-1,0.3-1.5,0.4c-0.2,0-0.4,0.1-0.5,0.1c-0.1,0-0.3-0.1-0.4-0.3
			c-0.1-0.2-0.3-0.6-0.6-1.2c-0.3-0.6-0.6-1.2-1-1.9c-0.4-0.7-0.7-1.3-0.9-1.8c-0.3-0.6-0.4-0.9-0.4-1c0-0.1,0.1-0.3,0.4-0.6
			c0.3-0.2,0.6-0.5,1-0.8c0.4-0.3,0.7-0.5,1.1-0.7c0.3-0.2,0.6-0.4,0.7-0.4c0-0.6-0.1-1,0-1.5c0-0.4,0.1-0.9,0.2-1.4
			c-0.1-0.1-0.3-0.2-0.6-0.5c-0.3-0.3-0.6-0.5-0.9-0.8c-0.3-0.3-0.6-0.6-0.8-0.8c-0.2-0.3-0.4-0.5-0.4-0.5c0-0.1,0.1-0.4,0.4-1
			c0.3-0.6,0.7-1.2,1.1-1.8c0.4-0.6,0.9-1.3,1.3-1.8c0.4-0.6,0.7-0.9,0.8-1.1l0.2-0.2c0.1,0,0.3,0,0.6,0.2c0.3,0.1,0.7,0.3,1.1,0.4
			c0.4,0.2,0.7,0.3,1.1,0.5c0.4,0.2,0.6,0.3,0.7,0.4c0.7-0.5,1.6-0.9,2.5-1.4c0-0.1,0.1-0.4,0.1-0.8c0.1-0.4,0.2-0.8,0.3-1.2
			c0.1-0.4,0.3-0.8,0.4-1.1c0.1-0.3,0.2-0.5,0.4-0.6c0.1,0,0.5,0,1.3-0.1c0.7,0,1.5,0,2.4,0.1c0.8,0.1,1.6,0.2,2.3,0.3
			c0.7,0.1,1.1,0.3,1.1,0.6c0.1,0.5,0.2,1.1,0.2,1.7c0,0.6,0,1.2,0.1,1.7c0.4,0.2,0.9,0.4,1.2,0.7c0.4,0.3,0.7,0.5,1.1,0.9
			c0.6-0.2,1.1-0.4,1.7-0.5c0.6-0.2,1.1-0.3,1.6-0.5c0.2,0,0.5,0.2,0.9,0.8c0.4,0.6,0.8,1.2,1.2,2c0.4,0.7,0.7,1.5,1,2.1
			c0.3,0.7,0.5,1.1,0.5,1.3c0,0.1-0.1,0.3-0.4,0.6c-0.3,0.2-0.6,0.5-0.9,0.7c-0.3,0.2-0.7,0.5-1,0.7C89.9,91.3,89.7,91.4,89.5,91.5
			L89.5,91.5z M82.3,63.4c-0.1,0.9-0.3,1.7-0.5,2.5c0.1,0.1,0.2,0.2,0.4,0.5c0.2,0.3,0.5,0.5,0.7,0.8c0.3,0.3,0.5,0.6,0.7,0.8
			c0.2,0.2,0.3,0.4,0.3,0.4c0,0.1-0.2,0.5-0.6,1c-0.4,0.5-0.9,1.1-1.4,1.7c-0.5,0.6-1,1.1-1.5,1.6c-0.5,0.5-0.7,0.7-0.8,0.7
			c-0.1,0-0.3,0-0.6-0.2c-0.3-0.2-0.6-0.3-0.9-0.6c-0.3-0.2-0.6-0.4-0.9-0.6c-0.3-0.2-0.5-0.4-0.6-0.4c-0.3,0.2-0.6,0.3-0.9,0.5
			c-0.3,0.1-0.7,0.2-1,0.3l-0.5,0.1c-0.1,0.1-0.2,0.3-0.3,0.7c-0.1,0.3-0.2,0.7-0.4,1.1c-0.1,0.4-0.3,0.7-0.4,1
			c-0.1,0.3-0.3,0.4-0.4,0.5c-0.1,0-0.5,0-1.1-0.1c-0.7-0.1-1.4-0.2-2.1-0.4c-0.7-0.2-1.4-0.3-2.1-0.5c-0.6-0.2-1-0.4-1-0.5
			c0,0,0-0.2,0-0.5c0-0.3,0-0.6,0-1c0-0.4,0.1-0.7,0.1-1c0-0.3,0-0.6,0.1-0.7c-0.7-0.4-1.3-1-1.9-1.7c-1.2,0.3-2.1,0.4-2.7,0.5
			c-0.5,0.1-0.9-0.1-1.2-0.4c-0.3-0.3-0.5-0.9-0.7-1.8c-0.2-0.9-0.5-2.1-1.1-3.8c0-0.1,0.1-0.3,0.3-0.5c0.3-0.2,0.6-0.4,0.9-0.6
			c0.4-0.2,0.7-0.4,1.1-0.5c0.4-0.1,0.6-0.3,0.7-0.3c0-0.8,0.2-1.7,0.5-2.5c-0.1-0.1-0.2-0.3-0.4-0.5c-0.2-0.3-0.4-0.6-0.7-0.8
			c-0.2-0.3-0.4-0.5-0.6-0.8c-0.2-0.2-0.3-0.4-0.3-0.5c0-0.1,0.1-0.5,0.5-1c0.4-0.5,0.9-1.1,1.4-1.7c0.5-0.6,1-1.1,1.5-1.6
			c0.5-0.5,0.8-0.7,0.8-0.7c0.1,0,0.3,0,0.5,0.2c0.3,0.2,0.6,0.3,0.9,0.6c0.3,0.2,0.7,0.4,0.9,0.6c0.3,0.2,0.5,0.3,0.6,0.4
			c0.3-0.2,0.6-0.3,0.9-0.5c0.3-0.1,0.7-0.2,1-0.3l0.5-0.1c0-0.1,0.1-0.3,0.2-0.7c0.1-0.3,0.3-0.7,0.4-1.1c0.1-0.4,0.3-0.7,0.4-1
			c0.1-0.3,0.2-0.5,0.3-0.5c0.1,0,0.5,0,1.2,0.1c0.7,0.1,1.4,0.2,2.2,0.4c0.8,0.2,1.5,0.3,2.1,0.5c0.6,0.2,1,0.3,1,0.5
			c0,0.1,0,0.3,0,0.6c0,0.3,0,0.6,0,1c0,0.4,0,0.7,0,1c0,0.3-0.1,0.5-0.1,0.7c0.6,0.5,1.2,1,1.9,1.7c1.2-0.2,2.1-0.4,2.6-0.4
			c0.6-0.1,0.9,0.1,1.2,0.4c0.2,0.3,0.4,0.9,0.6,1.8c0.2,0.9,0.6,2.1,1.1,3.7c0,0.1-0.1,0.3-0.3,0.5c-0.3,0.2-0.6,0.4-0.9,0.6
			c-0.3,0.2-0.7,0.4-1.1,0.5C82.7,63.2,82.5,63.3,82.3,63.4L82.3,63.4z M74.3,93.3c0.3,1.1,1,2,2,2.7c1,0.6,2.1,0.8,3.3,0.5
			c1.1-0.3,2-0.9,2.6-2c0.6-1,0.8-2.1,0.5-3.3c-0.3-1.1-0.9-2-2-2.6c-1-0.6-2.1-0.7-3.3-0.4c-1.1,0.3-2,0.9-2.6,2
			C74.2,91.1,74,92.2,74.3,93.3z M68.4,63.6c0.3,1.1,0.9,1.9,1.8,2.5c0.9,0.5,1.9,0.7,3,0.4c1.1-0.3,1.9-0.9,2.5-1.8
			c0.6-0.9,0.7-1.9,0.4-3c-0.3-1.1-0.9-1.9-1.8-2.5c-0.9-0.6-1.9-0.7-3-0.4c-1.1,0.3-1.9,0.9-2.4,1.8C68.3,61.6,68.2,62.6,68.4,63.6
			z"/>
	</g>
</g>
<g id="Credits">
</g>
</svg>
