<?xml version="1.0" encoding="utf-8"?>
<!-- Generator: Adobe Illustrator 20.0.0, SVG Export Plug-In . SVG Version: 6.00 Build 0)  -->
<svg version="1.1" xmlns="http://www.w3.org/2000/svg" xmlns:xlink="http://www.w3.org/1999/xlink" x="0px" y="0px"
	 viewBox="0 0 190 190" style="enable-background:new 0 0 190 190;" xml:space="preserve">
<style type="text/css">
	.st0{fill:#756055;stroke:#010202;stroke-width:0.2684;stroke-miterlimit:10;}
	.st1{fill:#756055;}
	.st2{fill-rule:evenodd;clip-rule:evenodd;fill:#756055;}
</style>
<g id="iconos">
	<path class="st1" d="M111,114.9C69.9,93.8,88.1,84.7,88.1,84.7c4-2.1,6.3-2.2,7.5-2.2c1.2,0,1.3-0.7,1.3-0.8
		c2.7-12.2,5.8-20.9,9.4-28c-3.6-5.9-12.8,7.5-17.8,6.3c0,0-9.7-19.5-22.8,11.2c-0.8,1.8-1.1,3.9-1.6,6.1c-3.4,0.8-6.7,1.7-9.9,2.7
		c-0.1,0-0.1,0-0.2,0.1c-0.5,0.2-1,0.4-1.5,0.5c-1.3-0.1-2.6-0.2-3.9-0.2c-13.5,0-24.5,7.4-24.5,16.5c0,0.3,0,0.5,0,0.8
		c-5.4,3-8.8,7.6-8.8,12.8c0,2.2,0.6,4.4,1.8,6.3c0.9,10,8.8,19.4,22.4,26.7c8.8,4.7,19.2,8.2,30.7,10.2
		C160.9,141.9,111,114.9,111,114.9z M68.8,90.3c-0.2,0-0.3-0.3-0.2-0.4l0.8-0.9h-0.6c-0.2,0-0.3-0.3-0.2-0.4l0.8-0.9h-0.6
		c-0.2,0-0.3-0.3-0.2-0.4l0.8-0.9h-0.6c-0.2,0-0.3-0.3-0.2-0.4l2.5-2.7c0.1-0.1,0.2-0.1,0.3,0l2.5,2.7c0.1,0.2,0,0.4-0.2,0.4h-0.6
		l0.8,0.9c0.1,0.2,0,0.4-0.2,0.4h-0.6l0.8,0.9c0.1,0.2,0,0.4-0.2,0.4h-0.6l0.8,0.9c0.1,0.2,0,0.4-0.2,0.4h-0.6l0.8,0.9
		c0.1,0.2,0,0.4-0.2,0.4h-2v0.5c0,0.3-0.2,0.5-0.5,0.5s-0.5-0.2-0.5-0.5v-0.5h-2c-0.2,0-0.3-0.3-0.2-0.4l0.8-0.9H68.8z M34.8,101.4
		l1.1-1.2h-0.9c-0.3,0-0.4-0.4-0.2-0.6l1.1-1.2h-0.9c-0.3,0-0.4-0.4-0.2-0.6l1.1-1.2h-0.9c-0.3,0-0.4-0.4-0.2-0.6l1.1-1.2h-0.9
		c-0.3,0-0.4-0.4-0.2-0.6l3.5-3.9c0.1-0.1,0.3-0.1,0.5,0l3.5,3.9c0.2,0.2,0.1,0.6-0.2,0.6h-0.9l1.1,1.2c0.2,0.2,0.1,0.6-0.2,0.6
		h-0.9l1.1,1.2c0.2,0.2,0.1,0.6-0.2,0.6h-0.9l1.1,1.2c0.2,0.2,0.1,0.6-0.2,0.6h-0.9l1.1,1.2c0.2,0.2,0.1,0.6-0.2,0.6h-2.8v0.7
		c0,0.4-0.3,0.7-0.7,0.7c-0.4,0-0.7-0.3-0.7-0.7V102h-2.8C34.8,102,34.6,101.6,34.8,101.4z M51.3,119.4c0.4,0.4,0.1,1.2-0.4,1.2
		h-1.6l2,2.3c0.4,0.4,0.1,1.2-0.4,1.2h-1.6l2,2.3c0.4,0.4,0.1,1.2-0.4,1.2h-1.6l2,2.3c0.4,0.4,0.1,1.2-0.4,1.2h-5.2v1.4
		c0,0.8-0.6,1.4-1.2,1.4c-0.7,0-1.2-0.6-1.2-1.4v-1.4h-5.2c-0.5,0-0.8-0.7-0.4-1.2l2-2.3h-1.6c-0.5,0-0.8-0.7-0.4-1.2l2-2.3h-1.6
		c-0.5,0-0.8-0.7-0.4-1.2l2-2.3h-1.6c-0.5,0-0.8-0.7-0.4-1.2l2-2.3h-1.6c-0.5,0-0.8-0.7-0.4-1.2l6.5-7.2c0.2-0.3,0.6-0.3,0.9,0
		l6.5,7.2c0.4,0.4,0.1,1.2-0.4,1.2h-1.6L51.3,119.4z M61,99.2c0.3,0.3,0.1,0.8-0.3,0.8h-1.1l1.4,1.5c0.3,0.3,0.1,0.8-0.3,0.8h-1.1
		l1.4,1.5c0.3,0.3,0.1,0.8-0.3,0.8h-1.1l1.4,1.5c0.3,0.3,0.1,0.8-0.3,0.8h-3.6v0.9c0,0.5-0.4,0.9-0.8,0.9c-0.5,0-0.8-0.4-0.8-0.9
		V107h-3.6c-0.4,0-0.6-0.5-0.3-0.8l1.4-1.5h-1.1c-0.4,0-0.6-0.5-0.3-0.8l1.4-1.5h-1.1c-0.4,0-0.6-0.5-0.3-0.8L53,100h-1.1
		c-0.4,0-0.6-0.5-0.3-0.8l1.4-1.5h-1.1c-0.4,0-0.6-0.5-0.3-0.8l4.4-4.9c0.2-0.2,0.4-0.2,0.6,0l4.4,4.9c0.3,0.3,0.1,0.8-0.3,0.8h-1.1
		L61,99.2z M77.2,131.8c0.4,0.5,0.1,1.3-0.5,1.3h-1.8l2.3,2.5c0.4,0.5,0.1,1.3-0.5,1.3h-1.8l2.3,2.5c0.4,0.5,0.1,1.3-0.5,1.3h-1.8
		l2.3,2.5c0.4,0.5,0.1,1.3-0.5,1.3h-5.8v1.5c0,0.8-0.6,1.5-1.4,1.5c-0.8,0-1.4-0.7-1.4-1.5v-1.5h-5.8c-0.6,0-0.9-0.8-0.5-1.3
		l2.3-2.5h-1.8c-0.6,0-0.9-0.8-0.5-1.3l2.3-2.5h-1.8c-0.6,0-0.9-0.8-0.5-1.3l2.3-2.5h-1.8c-0.6,0-0.9-0.8-0.5-1.3l2.3-2.5h-1.8
		c-0.6,0-0.9-0.8-0.5-1.3l7.2-8c0.3-0.3,0.7-0.3,1,0l7.2,8c0.4,0.5,0.1,1.3-0.5,1.3h-1.8L77.2,131.8z M85.1,104.8
		c0.4,0.4,0.1,1.1-0.4,1.1h-1.4l1.8,2.1c0.4,0.4,0.1,1.1-0.4,1.1h-1.4l1.8,2.1c0.4,0.4,0.1,1.1-0.4,1.1h-1.4l1.8,2.1
		c0.4,0.4,0.1,1.1-0.4,1.1h-4.8v1.2c0,0.7-0.5,1.2-1.1,1.2c-0.6,0-1.1-0.6-1.1-1.2v-1.2h-4.8c-0.5,0-0.7-0.7-0.4-1.1l1.8-2.1h-1.4
		c-0.5,0-0.7-0.7-0.4-1.1l1.8-2.1h-1.4c-0.5,0-0.7-0.7-0.4-1.1l1.8-2.1h-1.4c-0.5,0-0.7-0.7-0.4-1.1l1.8-2.1h-1.4
		c-0.5,0-0.7-0.7-0.4-1.1l5.9-6.6c0.2-0.2,0.6-0.2,0.8,0l5.9,6.6c0.4,0.4,0.1,1.1-0.4,1.1h-1.4L85.1,104.8z"/>
	<path class="st1" d="M174.5,114.4c-0.3-1.9-0.6-3.8-1-5.8c-0.9-4.8-1.8-9.5-2.9-14.3c-2.4-10.2-9.6-20.2-16.3-28
		c-12.5-14.6-10.5-40.7-29.8-29.6c-8.1,4.7-13.1,13.4-16.6,21.3c-1.7,3.9-3.2,8-4.4,12c-0.7,2.4-1.4,4.8-2,7.3
		c-0.3,1.4-0.7,2.8-1,4.1c-0.2,1-0.4,2.5-1.4,2.6c-1.1,0.2-3.5,0.4-5.1,1.2c-1.7,0.8-2.6,3.5-1.9,5c0.7,1.7,2.8,2.7,4.4,3.6
		c2.3,1.3,4.8,2.4,7.3,3.5c6,2.5,12.3,4.5,18.5,6.6c8.8,3,18.2,5.1,26.2,9.8c3.8,2.3,7.2,5.2,9.1,9.1c1.9,3.8,3.1,8.3,1.6,12.4
		c-0.3,0.9-0.3,2,1,2.2c1.3,0.3,2.2-0.8,3-1.5c2-1.7,3.8-3.5,5.4-5.5c2.8-3.5,5-7.5,5.8-11.9C174.6,117.4,174.7,115.9,174.5,114.4z
		 M145.4,63.2H141l-4.5-2.3l-3.2-5.6l-4.8,2.7l-4.7-2.7l-5.2,2.7l-4.7-5.4c0,0,10.8-18.9,21.6-15.2c5.1,1.7,9.8,20.5,9.8,20.5
		l-1.6-2.6l-1,1.8L145.4,63.2z"/>
</g>
<g id="Credits">
</g>
</svg>
