<?xml version="1.0" encoding="utf-8"?>
<!-- Generator: Adobe Illustrator 20.0.0, SVG Export Plug-In . SVG Version: 6.00 Build 0)  -->
<svg version="1.1" xmlns="http://www.w3.org/2000/svg" xmlns:xlink="http://www.w3.org/1999/xlink" x="0px" y="0px"
	 viewBox="0 0 190 190" style="enable-background:new 0 0 190 190;" xml:space="preserve">
<style type="text/css">
	.st0{fill:#756055;stroke:#010202;stroke-width:0.2684;stroke-miterlimit:10;}
	.st1{fill:#756055;}
	.st2{fill-rule:evenodd;clip-rule:evenodd;fill:#756055;}
</style>
<g id="iconos">
	<g>
		<path class="st1" d="M45.7,128.3c-1.4,0-2.5,2.6-2.5,4c0,1.4,1.1,2.8,2.5,2.8c1.4,0,2.3-1.5,2.3-2.8
			C48,130.9,47.1,128.3,45.7,128.3z"/>
		<path class="st1" d="M104.4,161c-1.4,0-2.5,2.6-2.5,4c0,1.4,1.1,2.8,2.5,2.8c1.4,0,2.3-1.5,2.3-2.8S105.8,161,104.4,161z"/>
		<path class="st1" d="M96.5,146.6c-1.4,0-2.5,2.6-2.5,4c0,1.4,1.1,2.8,2.5,2.8s2.3-1.5,2.3-2.8S97.8,146.6,96.5,146.6z"/>
		<path class="st1" d="M140.8,145c-1.4,0-2.5,2.6-2.5,4c0,1.4,1.1,2.8,2.5,2.8c1.4,0,2.3-1.5,2.3-2.8S142.1,145,140.8,145z"/>
		<path class="st1" d="M154.8,86.2L154.8,86.2c-0.3-30.8-25.3-55.7-56.2-55.7c-30.9,0-56,25-56.1,55.9l0,0c0,20.7-0.2,37.4,3.2,37.5
			c1.6,0.1,2.4-4.6,2.8-12c0.7,1.4,1.5,2.9,2.4,4.2c6.5,10.8,16.6,19.2,28.7,23.3c4.9,1.8,10.1,2.9,15.5,3.2
			c-0.1-0.8-0.1-1.7-0.1-2.6c0-2.3,0.2-4.3,0.5-5.8c-3.2-1.9-5-6.3-5-6.3s-1.8-7.4-2.1-8.2c-0.3-0.8,0-6.9-0.3-8
			c-0.3-1-3.3-2.8-4.1-3.1c-0.8-0.3-0.8-7.7-1.3-10.5c-0.2-0.8,0.1-1.7,0.5-2.4c-4.6-3.4-15.4-13.3-16.6-14.5
			c-1.4-1.4-1.4-11.4-1.1-12.2c0.3-0.9,5.5-8.2,4.1-9.1c-1.4-0.9-9.8,2.7-11.8,2.7c-2,0,2.1-3.3,3-5.3c0.9-2,4.4-4,4.4-4
			s9-1.5,12.8-1.4c4,0.1,4.8-2.3,6-2.3s4.8-2.3,6.8-3.4c2-1.1,22.2-1.4,25.9-0.9c3.7,0.6,4.3,3.7,3.7,4.5c-0.6,0.9-4.5,4.5-5.7,4.5
			c-1.1,0-5.1,3.4-6.5,3.7c-1.4,0.3-0.6-4.5-0.6-5.7c0-1.1-3.7-2.6-5.7-1.7c-2,0.9-1.4,10.5-1.4,11.9c0,1.4-1.1,6-4.8,6.5
			c-3.7,0.6-5.4,3.4-8.2,6c-2.8,2.6-13.4,6.3-13.1,7.4c0.3,1.1,4.5,2.3,6.2,3.7c1.7,1.4,2.6,6,2.6,6s0.6,0.8,1.3,1.8
			c0.9-1,2-1.6,2.5-1.6c1,0,4.9,1.8,4.9,1.8s5.6,2.8,6.2,3.6c0.5,0.8,3.6,2.8,6.4,3.3c2.8,0.5,1.5,6.7,1.5,6.7s-1.5,4.1-1.5,4.9
			s-7.7,9-8.5,11.5c-0.4,1.5,0.4,4.9,1.2,7.5c0.8,0.8,1.5,4.1,1.5,8.2c0,0.8,0,1.5-0.1,2.2c0.8,0,1.6-0.1,2.3-0.1c0,0.5,0,0.8,0,0.8
			c0.3,9,1.5,14.6,3.7,14.7c2.1,0.1,3-6.1,3.3-15.6c6-1,11.7-3,16.9-5.7c0.3,18.8,1.2,31.5,3.8,31.4c2.8-0.1,3.7-12.5,3.9-31
			c0-1.2,0.3-5.8,2.3-7.2c1.7-1.2,2.1,1.5,2.2,2c0.5,6.1,1.4,9.8,3,9.8c2.4-0.1,3.2-7.3,3.5-18.1c0.2-1.2,0.6-3.3,1.5-4.8
			c0.1-0.2,0.3-0.4,0.4-0.6c0.3-0.3,0.6-0.6,0.9-0.8c1.2-0.6,2.1,0.6,2.1,1.4c0.1,0.9,1,5.8,2.7,5.8
			C155.1,124.2,154.8,107.2,154.8,86.2z M140.3,113.6c0,0-0.6-15.4-1.2-16C138.6,97,133,96,132,96c-1,0-4.3,1.6-4.8,1.2
			c-0.6-0.4-4.4-6-2.3-11.4c2.1-5.4,3.9-8.3,5-9.5c0.5-0.5,2.1-0.7,4-0.7c-0.1-0.1-0.2-0.2-0.2-0.2s0.8-3.4-0.3-5.8
			c-1.1-2.4-0.3-6.3-0.8-7.7c-0.5-1.3-0.3-5,2.6-5.8c1.8-0.5,7.1,5.8,8.4,9.2c1,2.5,3.2,7.8,3.7,12.5c0,0,0,0,0,0
			C148.3,78.5,149.4,105.5,140.3,113.6z"/>
	</g>
</g>
<g id="Credits">
</g>
</svg>
